<svg xmlns="http://www.w3.org/2000/svg" viewBox="0 0 418.76 173.74"><path d="M12.65 173.74H0v-133a105.31 105.31 0 0 1 31.34-5 56.9 56.9 0 0 1 20.34 3.51 46 46 0 0 1 15.69 9.68 42.22 42.22 0 0 1 10 14.85 49.41 49.41 0 0 1 3.48 18.69q0 12.28-4.21 21.08a42.23 42.23 0 0 1-11.09 14.48 44.31 44.31 0 0 1-15.67 8.33 61.52 61.52 0 0 1-18 2.66 64.8 64.8 0 0 1-9.71-.73 87 87 0 0 1-9.53-2zm53.72-91.49q0-15.94-8.89-25.75t-25-9.8a77.94 77.94 0 0 0-10.11.68 48.78 48.78 0 0 0-9.71 2.29v64.87a84.47 84.47 0 0 0 9.07 2.48 43.08 43.08 0 0 0 9.07 1q16.31 0 25.93-9.26t9.64-26.51zm40.11 46V0h12.83v128.25zm117.65-13.34a42.53 42.53 0 0 1-14.84 10.54q-8.43 3.57-20.34 3.57a46 46 0 0 1-19.25-3.77 39.12 39.12 0 0 1-13.74-10.17 43.16 43.16 0 0 1-8.25-14.66 54.73 54.73 0 0 1-2.75-17.41 60.28 60.28 0 0 1 3.3-21 41.79 41.79 0 0 1 9-14.76 35.94 35.94 0 0 1 13.2-8.7 44.73 44.73 0 0 1 15.91-2.81q20.16 0 30.42 12.37t9.9 36h-68.72q.56 15.58 9 24.74t22.91 9.17a38.89 38.89 0 0 0 14.66-2.66 32.29 32.29 0 0 0 11.91-8.52zm-10.26-41.6a31.82 31.82 0 0 0-1.74-10.63 24.14 24.14 0 0 0-4.95-8.43 23 23 0 0 0-8.34-5.59 34.92 34.92 0 0 0-23.91 0 21.63 21.63 0 0 0-8 5.4 37.32 37.32 0 0 0-5.4 8.34 34.05 34.05 0 0 0-3.16 10.91zm96.79-15.06a32.18 32.18 0 0 0-10.37-8.89 28.9 28.9 0 0 0-13.25-2.84c-6.53 0-11.1 1.17-13.72 3.48a11.25 11.25 0 0 0-3.94 8.8 10.36 10.36 0 0 0 1.83 6.23 16.15 16.15 0 0 0 4.79 4.4 35.85 35.85 0 0 0 6.92 3.21q3.93 1.36 8.16 2.66c3.45 1.09 6.91 2.29 10.36 3.57a39.83 39.83 0 0 1 9.51 5 25.49 25.49 0 0 1 7 7.6 21.69 21.69 0 0 1 2.69 11.27 23 23 0 0 1-2.69 11.18 25.12 25.12 0 0 1-7.29 8.34 33 33 0 0 1-10.85 5.13 53.23 53.23 0 0 1-32.73-1.83 45.89 45.89 0 0 1-15.94-11.82l10-8.8q10 12.84 25.92 12.84 10.36 0 15.36-3.86t5-9.34a12.89 12.89 0 0 0-1.82-7.06 16.15 16.15 0 0 0-5-4.86 32.51 32.51 0 0 0-7.29-3.38c-2.76-.92-5.66-1.81-8.73-2.66q-5.19-1.47-10.27-3.3a37.67 37.67 0 0 1-9.12-4.68 23 23 0 0 1-6.63-7.23 21.77 21.77 0 0 1-2.59-11.18q0-12.1 8.83-18.7t22.85-6.59a45.14 45.14 0 0 1 17.72 3.36q7.77 3.3 14.87 11.55l-9.4 8.61zm34.06 70V.18h12.83v128.07zm12.83-47.28 44-44.36h17.23l-45.08 44 44.88 47.64H400.8z"/><path d="M151.11 173.74H73.92v-12.07h77.19z" fill="#53bce6"/></svg>