<?xml version="1.0" encoding="utf-8"?>
<!-- Generator: Adobe Illustrator 23.0.2, SVG Export Plug-In . SVG Version: 6.00 Build 0)  -->
<svg version="1.1" id="Слой_1" xmlns="http://www.w3.org/2000/svg" xmlns:xlink="http://www.w3.org/1999/xlink" x="0px" y="0px"
	 viewBox="0 0 1600 900" style="enable-background:new 0 0 1600 900;" xml:space="preserve">
<style type="text/css">
	.st0{fill:url(#SVGID_1_);}
	.st1{fill:url(#SVGID_2_);}
	.st2{fill:url(#SVGID_3_);}
	.st3{fill:url(#SVGID_4_);}
	.st4{fill:url(#SVGID_5_);}
	.st5{opacity:0.24;fill:#FFFFFF;enable-background:new    ;}
	.st6{fill:url(#SVGID_6_);}
	.st7{fill:url(#SVGID_7_);}
	.st8{opacity:0.18;fill:#FFFFFF;enable-background:new    ;}
	.st9{fill:url(#SVGID_8_);}
	.st10{opacity:0.5;fill:#012738;enable-background:new    ;}
	.st11{opacity:0.72;fill:#012738;enable-background:new    ;}
	.st12{fill:url(#SVGID_9_);}
	.st13{fill:url(#SVGID_10_);}
	.st14{fill:url(#SVGID_11_);}
	.st15{fill:url(#SVGID_12_);}
	.st16{fill:url(#SVGID_13_);}
	.st17{fill:url(#SVGID_14_);}
	.st18{fill:url(#SVGID_15_);}
	.st19{fill:url(#SVGID_16_);}
	.st20{fill:url(#SVGID_17_);}
	.st21{fill:url(#SVGID_18_);}
	.st22{fill:url(#SVGID_19_);}
	.st23{fill:url(#SVGID_20_);}
	.st24{fill:url(#SVGID_21_);}
	.st25{fill:url(#SVGID_22_);}
	.st26{fill:url(#SVGID_23_);}
	.st27{fill:url(#SVGID_24_);}
	.st28{fill:url(#SVGID_25_);}
	.st29{fill:url(#SVGID_26_);}
	.st30{fill:url(#SVGID_27_);}
	.st31{fill:url(#SVGID_28_);}
	.st32{fill:#FFFFFF;}
	.st33{fill:url(#SVGID_29_);}
	.st34{fill:url(#SVGID_30_);}
	.st35{fill:url(#SVGID_31_);}
	.st36{fill:url(#SVGID_32_);}
	.st37{fill:url(#SVGID_33_);}
	.st38{fill:url(#SVGID_34_);}
	.st39{fill:url(#SVGID_35_);}
	.st40{fill:url(#SVGID_36_);}
	.st41{opacity:0.55;fill:#FFFFFF;enable-background:new    ;}
	.st42{fill:url(#SVGID_37_);}
	.st43{fill:url(#SVGID_38_);}
	.st44{opacity:0.77;fill:#FFFFFF;enable-background:new    ;}
	.st45{fill:url(#SVGID_39_);}
	.st46{fill:url(#SVGID_40_);}
	.st47{fill:url(#SVGID_41_);}
	.st48{fill:url(#SVGID_42_);}
	.st49{fill:url(#SVGID_43_);}
	.st50{fill:url(#SVGID_44_);}
	.st51{fill:url(#SVGID_45_);}
	.st52{fill:url(#SVGID_46_);}
	.st53{fill:url(#SVGID_47_);}
	.st54{fill:url(#SVGID_48_);}
	.st55{fill:url(#SVGID_49_);}
	.st56{fill:url(#SVGID_50_);}
	.st57{opacity:0.27;fill:#012738;enable-background:new    ;}
	.st58{fill:url(#SVGID_51_);}
	.st59{fill:url(#SVGID_52_);}
	.st60{fill:url(#SVGID_53_);}
	.st61{fill:url(#SVGID_54_);}
	.st62{fill:url(#SVGID_55_);}
	.st63{fill:url(#SVGID_56_);}
	.st64{opacity:0.42;fill:#012738;enable-background:new    ;}
	.st65{fill:url(#SVGID_57_);}
	.st66{fill:url(#SVGID_58_);}
	.st67{fill:url(#SVGID_59_);}
	.st68{fill:url(#SVGID_60_);}
	.st69{fill:url(#SVGID_61_);}
	.st70{fill:url(#SVGID_62_);}
	.st71{opacity:0.34;fill:#012738;enable-background:new    ;}
	.st72{opacity:0.17;fill:#012738;enable-background:new    ;}
	.st73{fill:url(#SVGID_63_);}
	.st74{fill:url(#SVGID_64_);}
	.st75{fill:url(#SVGID_65_);}
	.st76{fill:url(#SVGID_66_);}
	.st77{fill:url(#SVGID_67_);}
	.st78{fill:url(#SVGID_68_);}
	.st79{fill:url(#SVGID_69_);}
	.st80{fill:url(#SVGID_70_);}
	.st81{fill:url(#SVGID_71_);}
	.st82{fill:url(#SVGID_72_);}
	.st83{fill:url(#SVGID_73_);}
	.st84{fill:url(#SVGID_74_);}
	.st85{fill:url(#SVGID_75_);}
	.st86{fill:url(#SVGID_76_);}
	.st87{fill:url(#SVGID_77_);}
	.st88{fill:url(#SVGID_78_);}
	.st89{fill:url(#SVGID_79_);}
	.st90{fill:url(#SVGID_80_);}
	.st91{fill:url(#SVGID_81_);}
	.st92{opacity:0.45;fill:#FFFFFF;enable-background:new    ;}
	.st93{fill:url(#SVGID_82_);}
	.st94{fill:url(#SVGID_83_);}
	.st95{opacity:0.71;fill:#012738;enable-background:new    ;}
	.st96{fill:url(#SVGID_84_);}
	.st97{opacity:0.15;fill:#FFFFFF;enable-background:new    ;}
	.st98{fill:url(#SVGID_85_);}
	.st99{fill:url(#SVGID_86_);}
	.st100{fill:url(#SVGID_87_);}
	.st101{fill:url(#SVGID_88_);}
	.st102{fill:url(#SVGID_89_);}
	.st103{fill:url(#SVGID_90_);}
	.st104{fill:url(#SVGID_91_);}
	.st105{fill:url(#SVGID_92_);}
	.st106{fill:url(#SVGID_93_);}
</style>
<g id="Слой_4">
</g>
<g id="Слой_3">
	<g>
		
			<linearGradient id="SVGID_1_" gradientUnits="userSpaceOnUse" x1="800.0001" y1="31.6693" x2="800.0001" y2="99.3361" gradientTransform="matrix(1 0 0 -1 0 902)">
			<stop  offset="0" style="stop-color:#459DE5"/>
			<stop  offset="1" style="stop-color:#09AF8F"/>
		</linearGradient>
		<path class="st0" d="M1578.18,819.23c0,13-121.24,24.54-308.91,31.82h-0.07c-123.26,4.79-275.18,7.72-440.21,8.03
			c-9.62,0.02-19.28,0.03-28.99,0.03c-429.77,0-778.18-17.85-778.18-39.88c0-13.89,138.46-26.12,348.48-33.25
			c79.68-2.72,169.67-4.69,266.3-5.75c52.69-0.58,107.35-0.88,163.4-0.88C1229.77,779.35,1578.18,797.21,1578.18,819.23z"/>
		
			<linearGradient id="SVGID_2_" gradientUnits="userSpaceOnUse" x1="391.9388" y1="295.9919" x2="547.658" y2="154.9285" gradientTransform="matrix(1 0 0 -1 0 902)">
			<stop  offset="0" style="stop-color:#459DE5"/>
			<stop  offset="1" style="stop-color:#09AF8F"/>
		</linearGradient>
		<path class="st1" d="M1269.2,851.05c-123.26,4.79-275.18,7.72-440.21,8.03c-9.62,0.02-19.28,0.03-28.99,0.03
			c-429.77,0-778.18-17.85-778.18-39.88c0-13.89,138.46-26.12,348.48-33.25l1.43,1.26c0,0-79.41,6.05-73.83,26.91
			C303.48,835,706.47,857.25,1269.2,851.05z"/>
	</g>
</g>
<g>
	<g>
		<g>
			
				<linearGradient id="SVGID_3_" gradientUnits="userSpaceOnUse" x1="578.4492" y1="648.1613" x2="436.109" y2="605.2642" gradientTransform="matrix(1 0 0 -1 0 902)">
				<stop  offset="0" style="stop-color:#E1EFFF"/>
				<stop  offset="1" style="stop-color:#BACDDD"/>
			</linearGradient>
			<path class="st2" d="M603.63,319.88c0,0-15.89,1.52-39.69,5.53c-36,6.06-90.15,17.84-134.82,38.71
				c-6.02,2.81-11.89,5.8-17.5,8.97c-14.45,8.11-27.31,17.39-37.42,27.95c-0.71,0.74-1.4,1.44-2.08,2.12
				c-2.83,2.83-5.38,5.09-7.66,6.82c0,0.01,0,0.01-0.01,0.01c-28.22,21.45-16.06-37-2.98-83.8c1.26-4.53,2.53-8.94,3.78-13.16
				c6.49-21.94,12.22-38.72,12.22-38.72l7.89-25.21l2.96-9.4l2.2-7.03c0,0,0.06-0.04,0.19-0.13c0.09-0.07,0.22-0.17,0.37-0.28
				c0.43-0.3,1.09-0.78,1.99-1.4c0.22-0.15,0.45-0.3,0.69-0.47c2.47-1.68,6.32-4.21,11.48-7.29c0.39-0.24,0.78-0.47,1.18-0.71
				c1.15-0.67,2.37-1.38,3.63-2.1c0.3-0.18,0.6-0.34,0.91-0.53c3.84-2.16,8.19-4.52,13.04-6.97c0.54-0.28,1.08-0.56,1.64-0.83
				c2.92-1.46,6-2.95,9.25-4.46c4.83-2.24,10.03-4.54,15.58-6.81c0.43-0.18,0.86-0.35,1.31-0.53c4.56-1.86,9.35-3.7,14.36-5.5
				c0.8-0.28,1.61-0.57,2.43-0.86c2.53-0.89,5.12-1.78,7.75-2.64c0.87-0.29,1.76-0.58,2.66-0.87c0.89-0.29,1.79-0.57,2.69-0.85
				c0,0,0,0,0.01,0c0.94-0.3,1.9-0.59,2.86-0.89c0.07-0.02,0.15-0.04,0.22-0.06c3.95-1.2,8.01-2.37,12.19-3.5
				c1.3-0.34,2.61-0.7,3.92-1.04c1.11-0.28,2.23-0.57,3.35-0.85c1.13-0.28,2.26-0.56,3.4-0.83c1.14-0.27,2.28-0.55,3.44-0.81
				c1.16-0.27,2.33-0.53,3.49-0.79c1.17-0.26,2.35-0.52,3.53-0.77c0.03,0,0.06-0.01,0.09-0.02c2.34-0.49,4.7-0.97,7.09-1.43
				c1.21-0.23,2.43-0.46,3.65-0.69c3.69-0.67,7.42-1.31,11.22-1.89c1.27-0.2,2.54-0.38,3.82-0.57c0.02,0,0.03,0,0.05-0.01
				c18.51-2.66,38.43-4.2,59.63-4.1c0,0,0,0.02-0.01,0.07c-0.06,0.46-0.45,3.1-0.98,7.43c-0.04,0.32-0.08,0.65-0.12,0.99
				c-0.08,0.72-0.18,1.47-0.27,2.27c-0.09,0.73-0.18,1.49-0.27,2.28c-0.06,0.54-0.12,1.1-0.19,1.68c-0.04,0.3-0.07,0.62-0.1,0.93
				c-0.04,0.31-0.07,0.63-0.11,0.96c-0.1,0.97-0.21,1.97-0.31,3.01c-0.12,1.17-0.25,2.39-0.37,3.64c-0.05,0.57-0.11,1.14-0.17,1.73
				c-0.19,1.84-0.36,3.77-0.54,5.76C597.3,234.1,594.94,284.66,603.63,319.88z"/>
			
				<linearGradient id="SVGID_4_" gradientUnits="userSpaceOnUse" x1="385.35" y1="691.8576" x2="603.62" y2="691.8576" gradientTransform="matrix(1 0 0 -1 0 902)">
				<stop  offset="0" style="stop-color:#03344F"/>
				<stop  offset="1" style="stop-color:#0C4A66"/>
			</linearGradient>
			<path class="st3" d="M603.62,171.19c0,0-0.92,6.31-2.05,16.62c-0.44,4.13-0.92,8.88-1.39,14.15
				c-33.55,0.33-123.26,5.5-214.83,47.14l5.15-16.44c0,0,15.75-11.85,44.38-25.16C471.78,190.35,530.06,170.82,603.62,171.19z"/>
			
				<linearGradient id="SVGID_5_" gradientUnits="userSpaceOnUse" x1="576.5394" y1="719.2472" x2="570.1904" y2="710.9216" gradientTransform="matrix(1 0 0 -1 0 902)">
				<stop  offset="0" style="stop-color:#459DE5"/>
				<stop  offset="1" style="stop-color:#09AF8F"/>
			</linearGradient>
			<ellipse class="st4" cx="573.72" cy="186.45" rx="6.34" ry="8.29"/>
			<path class="st5" d="M603.62,319.88c0,0-15.88,1.52-39.69,5.53c2.25-113-81.04-135.64-82.26-135.97
				c33.15-10.39,74.35-18.48,121.95-18.25c0,0-1.81,12.37-3.44,30.77C597.3,234.09,594.93,284.66,603.62,319.88z"/>
			<path class="st5" d="M603.63,171.19c0,0,0,0.02-0.01,0.07c-0.06,0.46-0.45,3.1-0.98,7.43c-0.04,0.32-0.08,0.65-0.12,0.99
				c-0.08,0.72-0.18,1.47-0.27,2.27c-31.1,0.05-65.2,3.05-100.05,11.28c-27.37,6.48-67.95,19.18-113.89,46.45l2.2-7.03
				c0,0,0.06-0.04,0.19-0.13c0.09-0.07,0.22-0.17,0.37-0.28c0.43-0.3,1.09-0.78,1.99-1.4c0.22-0.15,0.45-0.3,0.69-0.47
				c2.47-1.68,6.32-4.21,11.48-7.29c0.39-0.24,0.78-0.47,1.18-0.71c1.15-0.67,2.37-1.38,3.63-2.1c0.3-0.18,0.6-0.34,0.91-0.53
				c3.84-2.16,8.19-4.52,13.04-6.97c0.54-0.28,1.08-0.56,1.64-0.83c2.92-1.46,6-2.95,9.25-4.46c4.83-2.24,10.03-4.54,15.58-6.81
				c0.43-0.18,0.86-0.35,1.31-0.53c4.56-1.86,9.35-3.7,14.36-5.5c0.8-0.28,1.61-0.57,2.43-0.86c2.53-0.89,5.12-1.78,7.75-2.64
				c0.87-0.29,1.76-0.58,2.66-0.87c0.89-0.29,1.79-0.57,2.69-0.85c0,0,0,0,0.01,0c0.94-0.3,1.9-0.59,2.86-0.89
				c0.07-0.02,0.15-0.04,0.22-0.06c3.95-1.2,8.01-2.37,12.19-3.5c1.3-0.34,2.61-0.7,3.92-1.04c1.11-0.28,2.23-0.57,3.35-0.85
				c1.13-0.28,2.26-0.56,3.4-0.83c1.14-0.27,2.28-0.55,3.44-0.81c1.16-0.27,2.33-0.53,3.49-0.79c1.17-0.26,2.35-0.52,3.53-0.77
				c0.03,0,0.06-0.01,0.09-0.02c2.34-0.49,4.7-0.97,7.09-1.43c1.21-0.23,2.43-0.46,3.65-0.69c3.69-0.67,7.42-1.31,11.22-1.89
				c1.27-0.2,2.54-0.38,3.82-0.57c0.02,0,0.03,0,0.05-0.01C562.51,172.63,582.43,171.09,603.63,171.19z"/>
		</g>
		
			<linearGradient id="SVGID_6_" gradientUnits="userSpaceOnUse" x1="613.6511" y1="584.4307" x2="854.2792" y2="568.9063" gradientTransform="matrix(1 0 0 -1 0 902)">
			<stop  offset="0" style="stop-color:#FFFFFF"/>
			<stop  offset="1" style="stop-color:#D4D9DD"/>
		</linearGradient>
		<path class="st6" d="M978.66,120.98v399.46c0,19.26-13.27,36.32-29.87,38.16l-187.02,20.56l-82.36,9.05l-7.93,0.88l-5.06,0.55
			c-21.57,2.38-39.36-13.86-39.36-36.29V88.06c0-22.43,17.79-38.67,39.36-36.29l5.06,0.56l7.93,0.87l164.45,18.08L948.8,82.81
			C965.39,84.65,978.66,101.72,978.66,120.98z"/>
		
			<linearGradient id="SVGID_7_" gradientUnits="userSpaceOnUse" x1="627.06" y1="799.9799" x2="978.67" y2="799.9799" gradientTransform="matrix(1 0 0 -1 0 902)">
			<stop  offset="0" style="stop-color:#03344F"/>
			<stop  offset="1" style="stop-color:#0C4A66"/>
		</linearGradient>
		<path class="st7" d="M978.67,120.98v31.52l-351.61-27.73V88.06c0-22.43,17.78-38.66,39.37-36.29l282.36,31.05
			C965.39,84.65,978.67,101.73,978.67,120.98z"/>
		<path class="st8" d="M932.04,80.98v10.51L632.17,68.66c6.8-11.59,19.66-18.49,34.25-16.88L932.04,80.98z"/>
		
			<linearGradient id="SVGID_8_" gradientUnits="userSpaceOnUse" x1="653.235" y1="807.9419" x2="653.235" y2="396.348" gradientTransform="matrix(1 0 0 -1 0 902)">
			<stop  offset="0" style="stop-color:#3ACEB2"/>
			<stop  offset="1" style="stop-color:#009377"/>
		</linearGradient>
		<path class="st9" d="M679.41,53.2v535.01l-7.94,0.87l-5.05,0.56c-21.57,2.37-39.36-13.86-39.36-36.29V88.06
			c0-22.43,17.79-38.66,39.36-36.29l5.05,0.56L679.41,53.2z"/>
		<path class="st10" d="M877.82,170.08l-98.07,11.78c-0.37,0.05-0.73,0.1-1.09,0.16c7.57-1.4,52.77-9.96,64.87-17.07
			c12.95-7.6,0.54-22.47,0.02-23.08c1.41,1.3,3.01,2.55,4.8,3.72C863.54,155.53,873.7,162.54,877.82,170.08z"/>
		<path class="st11" d="M771.63,184.03c-7.89,3.28-14.42,9.73-18.21,17.68c-2.3,4.79-3.59,10.11-3.59,15.62v120.2
			c-4.37-0.17-10.24,1.21-15.72,7.68c0.04-58.4,0.03-116.07-0.13-126.92c-0.33-23.26,37.32-34.97,37.32-34.97L771.63,184.03z"/>
		<path class="st10" d="M932.04,80.98v42.1c-7.98-5.04-16.79-7.4-25.89-4.21c-0.66,0.24-1.29,0.45-1.91,0.65
			c8.46-14.57,10.01-31.11,10.1-40.48L932.04,80.98z"/>
		<path class="st10" d="M488.76,264.28c-1.13,1.04-73.09,67.97-75.95,91.74c-0.45,3.72-0.84,9.67-1.19,17.07
			c-14.45,8.11-27.31,17.39-37.42,27.95c-0.71,0.74-1.4,1.44-2.08,2.12c-2.7,2.2-5.25,4.47-7.66,6.82c0,0.01,0,0.01-0.01,0.01
			c-0.84,0.83-1.66,1.66-2.47,2.5c-39.51,41.3-21.9-32.11-8.04-79.12c2.45-2.43,4.96-4.84,7.54-7.18
			c11.13-10.17,23.21-19.25,35-24.89C413.83,292.98,487.6,264.72,488.76,264.28z"/>
		<g>
			
				<linearGradient id="SVGID_9_" gradientUnits="userSpaceOnUse" x1="797.9055" y1="568.9991" x2="986.6008" y2="498.9445" gradientTransform="matrix(1 0 0 -1 0 902)">
				<stop  offset="0" style="stop-color:#FFFFFF"/>
				<stop  offset="1" style="stop-color:#D4D9DD"/>
			</linearGradient>
			<path class="st12" d="M1112.38,180.23v439.21c0,4.28-0.78,8.31-2.19,11.99H893.04l-37.3-4.49l-76-9.13
				c-16.64-2-29.92-17.86-29.92-35.46V217.32c0-17.59,13.27-33.46,29.92-35.46l152.3-18.3l138.56-16.65
				C1093.48,144.17,1112.38,159.06,1112.38,180.23z"/>
			
				<linearGradient id="SVGID_10_" gradientUnits="userSpaceOnUse" x1="749.82" y1="705.6423" x2="1112.38" y2="705.6423" gradientTransform="matrix(1 0 0 -1 0 902)">
				<stop  offset="0" style="stop-color:#0F384F"/>
				<stop  offset="1" style="stop-color:#1A4E66"/>
			</linearGradient>
			<path class="st13" d="M1112.38,180.24v34.66l-362.56,31.23v-28.81c0-17.6,13.28-33.46,29.92-35.46l290.86-34.95
				C1093.48,144.17,1112.38,159.07,1112.38,180.24z"/>
		</g>
		
			<linearGradient id="SVGID_11_" gradientUnits="userSpaceOnUse" x1="832.6043" y1="764.8074" x2="925.7529" y2="702.7084" gradientTransform="matrix(1 0 0 -1 0 902)">
			<stop  offset="0" style="stop-color:#3ACEB2"/>
			<stop  offset="1" style="stop-color:#009377"/>
		</linearGradient>
		<path class="st14" d="M889.79,255.73c0,0-34.9-35.44-17.99-58.89s6.54-31.63-23.45-51.25c-29.99-19.63-6.54-59.98,20.72-50.16
			s4.36,34.9,37.08,23.45s61.61,48.53,61.61,48.53s19.08,67.61,16.36,80.15c-2.73,12.54-2.18,28.35-22.36,31.63
			C941.59,282.44,889.79,255.73,889.79,255.73z"/>
		
			<linearGradient id="SVGID_12_" gradientUnits="userSpaceOnUse" x1="928.9898" y1="586.2077" x2="855.2471" y2="646.7543" gradientTransform="matrix(1 0 0 -1 0 902)">
			<stop  offset="0" style="stop-color:#459DE5"/>
			<stop  offset="1" style="stop-color:#92D3FF"/>
		</linearGradient>
		<path class="st15" d="M806.91,187.84c0,0-8.79,184.24,169.3,193.57s0-76.1,0-76.1S995.85,248.37,806.91,187.84z"/>
		
			<linearGradient id="SVGID_13_" gradientUnits="userSpaceOnUse" x1="852.2026" y1="555.8629" x2="921.2878" y2="512.3936" gradientTransform="matrix(1 0 0 -1 0 902)">
			<stop  offset="0" style="stop-color:#ED8191"/>
			<stop  offset="1" style="stop-color:#CC3A59"/>
		</linearGradient>
		<path class="st16" d="M937.23,422.58c0,0-58.89,21.21-88.88-42.83s19.63-105.45,33.26-44.94c0,0,44.17-25.64,63.8,41.43
			S937.23,422.58,937.23,422.58z"/>
		
			<linearGradient id="SVGID_14_" gradientUnits="userSpaceOnUse" x1="1304.8728" y1="570.868" x2="934.3629" y2="561.0533" gradientTransform="matrix(1 0 0 -1 0 902)">
			<stop  offset="0" style="stop-color:#E1EFFF"/>
			<stop  offset="1" style="stop-color:#BACDDD"/>
		</linearGradient>
		<path class="st17" d="M1458.37,79.27v453.05c0,54.74-44.38,99.11-99.11,99.11H856.8l-1.06-4.48l-31.09-132.4l22.73-41.71
			c0,0,84.65,9.17,84.65-91.12V79.27c0-22.7,18.41-41.11,41.11-41.11h444.11C1439.96,38.17,1458.37,56.57,1458.37,79.27z"/>
		
			<linearGradient id="SVGID_15_" gradientUnits="userSpaceOnUse" x1="932.04" y1="826.415" x2="1458.37" y2="826.415" gradientTransform="matrix(1 0 0 -1 0 902)">
			<stop  offset="0" style="stop-color:#03344F"/>
			<stop  offset="1" style="stop-color:#0C4A66"/>
		</linearGradient>
		<path class="st18" d="M1458.37,79.27V113H932.04V79.27c0-22.7,18.41-41.1,41.1-41.1h444.12
			C1439.97,38.17,1458.37,56.57,1458.37,79.27z"/>
		
			<linearGradient id="SVGID_16_" gradientUnits="userSpaceOnUse" x1="927.83" y1="262.2462" x2="927.83" y2="786.621" gradientTransform="matrix(1 0 0 -1 0 902)">
			<stop  offset="0" style="stop-color:#459DE5"/>
			<stop  offset="1" style="stop-color:#92D3FF"/>
		</linearGradient>
		<path class="st19" d="M1031,38.17v593.27H856.8l-32.14-136.89l22.73-41.71c0,0,84.65,9.17,84.65-91.11V79.27
			c0-22.7,18.41-41.1,41.1-41.1H1031z"/>
		<path class="st8" d="M1458.37,79.27v386.48L1112.92,38.17h304.34C1439.96,38.17,1458.37,56.57,1458.37,79.27z"/>
		
			<linearGradient id="SVGID_17_" gradientUnits="userSpaceOnUse" x1="459.3185" y1="404.3087" x2="427.4882" y2="305.145" gradientTransform="matrix(1 0 0 -1 0 902)">
			<stop  offset="0" style="stop-color:#ED8191"/>
			<stop  offset="1" style="stop-color:#CC3A59"/>
		</linearGradient>
		<path class="st20" d="M395.76,446.18c0,0-27.93,86.88,36.61,148.94s63.92,32.89,63.92,32.89s21.1-56.47,18.62-58.34
			c-2.48-1.86-9.93-26.06-9.93-26.06s3.1-33.51-47.16-52.75C407.55,471.62,395.76,446.18,395.76,446.18z"/>
		
			<linearGradient id="SVGID_18_" gradientUnits="userSpaceOnUse" x1="582.9753" y1="190.0162" x2="416.9421" y2="312.7008" gradientTransform="matrix(1 0 0 -1 0 902)">
			<stop  offset="0" style="stop-color:#459DE5"/>
			<stop  offset="1" style="stop-color:#92D3FF"/>
		</linearGradient>
		<path class="st21" d="M487.66,707.21c0,0-87.65-17.99-45.12-58.07c0,0-104.69,3.68-102.24-75.25s107.96-5.73,116.55,26.99
			c0,0,12.68-28.22,49.07-11.45s72.52,48.26,72.52,48.26s57.53,27.4,62.43,38.44c4.91,11.04,4.91,30.26,2.45,37.62
			c-2.45,7.36,2.04,4.91-24.54,20.04s-62.16,9.41-68.7,9.81C543.55,744.01,487.66,707.21,487.66,707.21z"/>
		
			<linearGradient id="SVGID_19_" gradientUnits="userSpaceOnUse" x1="1007.9552" y1="240.7919" x2="964.4858" y2="215.176" gradientTransform="matrix(1 0 0 -1 0 902)">
			<stop  offset="0" style="stop-color:#3ACEB2"/>
			<stop  offset="1" style="stop-color:#009377"/>
		</linearGradient>
		<path class="st22" d="M904.24,609.88c0,0,136.73-10.03,166.51,126.77c0,0-165.03-2.45-193.99-39.26
			C847.81,660.59,904.24,609.88,904.24,609.88z"/>
		
			<linearGradient id="SVGID_20_" gradientUnits="userSpaceOnUse" x1="428.6441" y1="171.8769" x2="564.874" y2="142.7679" gradientTransform="matrix(1 0 0 -1 0 902)">
			<stop  offset="0" style="stop-color:#3ACEB2"/>
			<stop  offset="1" style="stop-color:#009377"/>
		</linearGradient>
		<path class="st23" d="M606.02,804.94c0,0-126.57,29.44-221.09-92.01c0,0,123.86-58.73,234.28,29.52S606.02,804.94,606.02,804.94z"
			/>
		
			<linearGradient id="SVGID_21_" gradientUnits="userSpaceOnUse" x1="686.2343" y1="411.8643" x2="826.2939" y2="411.8643" gradientTransform="matrix(1 0 0 -1 0 902)">
			<stop  offset="0" style="stop-color:#ED8191"/>
			<stop  offset="1" style="stop-color:#CC3A59"/>
		</linearGradient>
		<path class="st24" d="M707.13,560.39c0,0,10.22-10.63-6.13-29.85c-16.36-19.22-14.72-29.59-14.72-29.59l32.92-77.14
			c0,0,7.22-4.32,25.9-3.9c18.68,0.42,72.04-4.28,79.61,41.52S810.39,515,807.93,528.9c-2.45,13.9,8.18,28.22-12.47,29.04
			c-20.65,0.82-32.1-1.02-35.99-2.86S707.13,560.39,707.13,560.39z"/>
		
			<linearGradient id="SVGID_22_" gradientUnits="userSpaceOnUse" x1="729.7061" y1="539.5273" x2="812.91" y2="539.5273" gradientTransform="matrix(1 0 0 -1 0 902)">
			<stop  offset="0" style="stop-color:#03344F"/>
			<stop  offset="1" style="stop-color:#0C4A66"/>
		</linearGradient>
		<path class="st25" d="M736.98,376.16c0,0-13.9-17.38-3.27-30.47s22.9-6.54,22.9-6.54s11.31-12.54,27.54-11.04
			c16.22,1.5,24.26,19.63,24.26,19.63l-11.31-1.64c0,0,7.77,12.27,15.81,12.68c0,0-1.36,2.04-10.63,5.73
			c-9.27,3.68-16.09,10.5-18.68,11.66s-16.09,6.48-16.77,7.7s-9.27,13.09-9.27,13.09L736.98,376.16z"/>
		
			<linearGradient id="SVGID_23_" gradientUnits="userSpaceOnUse" x1="750.6136" y1="493.4068" x2="766.5265" y2="493.6008" gradientTransform="matrix(1 0 0 -1 0 902)">
			<stop  offset="0" style="stop-color:#FFD7DF"/>
			<stop  offset="1" style="stop-color:#FFA6B7"/>
		</linearGradient>
		<path class="st26" d="M744.61,381.41l0.95,6.82c0,0,3,19.88-0.48,31.68c0,0,20.79,16.3,30.6,15.62s10.36-18.13,9.95-21.54
			s-29.44-22.22-30.13-22.49C754.84,391.22,744.61,381.41,744.61,381.41z"/>
		
			<linearGradient id="SVGID_24_" gradientUnits="userSpaceOnUse" x1="764.1757" y1="501.2537" x2="765.9222" y2="540.6478" gradientTransform="matrix(1 0 0 -1 0 902)">
			<stop  offset="0" style="stop-color:#FFD7DF"/>
			<stop  offset="1" style="stop-color:#FFA6B7"/>
		</linearGradient>
		<path class="st27" d="M745.57,388.23c0,0,19.36,35.44,38.71,31.35c19.36-4.09,17.99-55.07,17.99-55.07s-8.32-0.14-19.63-2.45
			s-23.04,8.45-23.04,10.36c0,1.91-2.32,14.72-2.32,14.72l-4.91-0.68c0,0-1.2-23.31-17.03-20.86
			C719.53,368.05,735.75,387.14,745.57,388.23z"/>
		
			<linearGradient id="SVGID_25_" gradientUnits="userSpaceOnUse" x1="696.2927" y1="405.8029" x2="688.6953" y2="381.0115" gradientTransform="matrix(1 0 0 -1 0 902)">
			<stop  offset="0" style="stop-color:#FFD7DF"/>
			<stop  offset="1" style="stop-color:#FFA6B7"/>
		</linearGradient>
		<path class="st28" d="M692.41,520.73l-21.62-3.25c0,0,6.49-28.45,15.08-39.69c8.59-11.25,33.33,7.16,33.33,7.16
			s-18.4,29.75-16.36,39.31S692.41,520.73,692.41,520.73z"/>
		
			<linearGradient id="SVGID_26_" gradientUnits="userSpaceOnUse" x1="400.0674" y1="458.1835" x2="626.2328" y2="458.1835" gradientTransform="matrix(1 0 -0.2085 -0.9745 191.3011 878.6198)">
			<stop  offset="0" style="stop-color:#03344F"/>
			<stop  offset="1" style="stop-color:#0C4A66"/>
		</linearGradient>
		<polygon class="st29" points="708.64,369.69 482.48,369.69 509.2,494.55 735.36,494.55 		"/>
		
			<linearGradient id="SVGID_27_" gradientUnits="userSpaceOnUse" x1="603.9667" y1="365.3024" x2="601.3187" y2="521.5327" gradientTransform="matrix(1 0 0 -1 0 902)">
			<stop  offset="0" style="stop-color:#E1EFFF"/>
			<stop  offset="1" style="stop-color:#BACDDD"/>
		</linearGradient>
		<rect x="578.44" y="452.84" class="st30" width="49.62" height="83.15"/>
		
			<linearGradient id="SVGID_28_" gradientUnits="userSpaceOnUse" x1="535.72" y1="338.74" x2="670.78" y2="338.74" gradientTransform="matrix(1 0 0 -1 0 902)">
			<stop  offset="0" style="stop-color:#03344F"/>
			<stop  offset="1" style="stop-color:#0C4A66"/>
		</linearGradient>
		<ellipse class="st31" cx="603.25" cy="563.26" rx="67.53" ry="42.53"/>
		<circle class="st32" cx="984.39" cy="77.56" r="19.23"/>
		
			<linearGradient id="SVGID_29_" gradientUnits="userSpaceOnUse" x1="982.7371" y1="165.797" x2="937.7153" y2="132.4188" gradientTransform="matrix(1 0 0 -1 0 902)">
			<stop  offset="0" style="stop-color:#ED8191"/>
			<stop  offset="1" style="stop-color:#CC3A59"/>
		</linearGradient>
		<path class="st33" d="M899.06,713.2c0,0,91.06-88.33,84.52-10.36c0,0,59.43-8.32,56.16,56.91s-73.61,25.58-73.61,25.58
			s-16.9,53.81-67.07,14.56C848.9,760.64,899.06,713.2,899.06,713.2z"/>
		
			<linearGradient id="SVGID_30_" gradientUnits="userSpaceOnUse" x1="727.9941" y1="384.3381" x2="719.3392" y2="356.0958" gradientTransform="matrix(1 0 0 -1 0 902)">
			<stop  offset="0" style="stop-color:#FFD7DF"/>
			<stop  offset="1" style="stop-color:#FFA6B7"/>
		</linearGradient>
		<path class="st34" d="M774.61,538.72c0,0-16.04-8.18-21.2-8.79c-5.16-0.61-47.09,15.95-67.94,8.79
			c-20.86-7.16-16.31-25.35-9.09-29.65c7.23-4.29,19.21,5.52,47.29,6.34c28.09,0.82,38.27,3.48,44.33,2.25s19.48-7.16,19.48-7.16
			L774.61,538.72z"/>
		<circle class="st32" cx="1326.57" cy="71.02" r="12.2"/>
		
			<linearGradient id="SVGID_31_" gradientUnits="userSpaceOnUse" x1="1350.2101" y1="830.98" x2="1374.61" y2="830.98" gradientTransform="matrix(1 0 0 -1 0 902)">
			<stop  offset="0" style="stop-color:#459DE5"/>
			<stop  offset="1" style="stop-color:#09AF8F"/>
		</linearGradient>
		<circle class="st35" cx="1362.41" cy="71.02" r="12.2"/>
		
			<linearGradient id="SVGID_32_" gradientUnits="userSpaceOnUse" x1="1386.05" y1="830.98" x2="1410.45" y2="830.98" gradientTransform="matrix(1 0 0 -1 0 902)">
			<stop  offset="0" style="stop-color:#ED8191"/>
			<stop  offset="1" style="stop-color:#CC3A59"/>
		</linearGradient>
		<circle class="st36" cx="1398.25" cy="71.02" r="12.2"/>
		
			<linearGradient id="SVGID_33_" gradientUnits="userSpaceOnUse" x1="897.1169" y1="204.605" x2="646.1144" y2="204.605" gradientTransform="matrix(1 0 0 -1 0 902)">
			<stop  offset="0" style="stop-color:#E1EFFF"/>
			<stop  offset="1" style="stop-color:#BACDDD"/>
		</linearGradient>
		<path class="st37" d="M914.42,791.43c0.48,24,2.92,39.28,2.92,39.28H530.85c10.68-10.57,21.96-24.16,32.13-39.28
			c38.82-57.71,61.52-137.88-26.37-158.24c-18.56-4.3-35.63-11.14-44.32-29.01c-1.79-3.67-7.61-40.1-2.71-40.1
			c2.18,0,508.72,0,508.72,0C922.76,632.17,913.29,735.5,914.42,791.43z"/>
		
			<linearGradient id="SVGID_34_" gradientUnits="userSpaceOnUse" x1="530.85" y1="90.93" x2="917.33" y2="90.93" gradientTransform="matrix(1 0 0 -1 0 902)">
			<stop  offset="0" style="stop-color:#459DE5"/>
			<stop  offset="1" style="stop-color:#92D3FF"/>
		</linearGradient>
		<path class="st38" d="M917.33,830.71H530.85c10.68-10.57,21.96-24.16,32.13-39.28h351.44
			C914.89,815.43,917.33,830.71,917.33,830.71z"/>
		
			<linearGradient id="SVGID_35_" gradientUnits="userSpaceOnUse" x1="472.39" y1="346.925" x2="885.9534" y2="346.925" gradientTransform="matrix(1 0 0 -1 0 902)">
			<stop  offset="0" style="stop-color:#459DE5"/>
			<stop  offset="1" style="stop-color:#92D3FF"/>
		</linearGradient>
		<rect x="472.39" y="546.08" class="st39" width="544.99" height="17.99"/>
		
			<linearGradient id="SVGID_36_" gradientUnits="userSpaceOnUse" x1="922.4343" y1="460.5125" x2="782.8464" y2="347.6426" gradientTransform="matrix(1 0 0 -1 0 902)">
			<stop  offset="0" style="stop-color:#E1EFFF"/>
			<stop  offset="1" style="stop-color:#BACDDD"/>
		</linearGradient>
		<polygon class="st40" points="768.2,538.72 913.24,538.72 945.41,450.39 800.37,450.39 		"/>
		
			<ellipse transform="matrix(0.7071 -0.7071 0.7071 0.7071 -98.8358 753.7781)" class="st32" cx="860.47" cy="496.19" rx="15.54" ry="11.66"/>
		<path class="st41" d="M1279,388.03h-144.68c-12.02,0-21.76-9.74-21.76-21.76V165.89c0-12.02,9.74-21.76,21.76-21.76H1279
			c12.02,0,21.76,9.74,21.76,21.76v200.38C1300.76,378.29,1291.01,388.03,1279,388.03z"/>
		<path class="st41" d="M1183.71,529.99h186.27c2.56,0,4.63-2.08,4.63-4.63l0,0c0-2.56-2.08-4.63-4.63-4.63h-186.27
			c-2.56,0-4.63,2.08-4.63,4.63l0,0C1179.08,527.92,1181.15,529.99,1183.71,529.99z"/>
		<g>
			<path class="st10" d="M1179.75,139.54l-3.88,242.23c-0.29,18.16,17.89,30.83,34.83,24.27c36.28-14.06,93.54-35.95,138.27-51.65
				L1179.75,139.54z"/>
			<g>
				
					<linearGradient id="SVGID_37_" gradientUnits="userSpaceOnUse" x1="1203.2706" y1="650.8889" x2="1362.3997" y2="680.386" gradientTransform="matrix(1 0 0 -1 0 902)">
					<stop  offset="0" style="stop-color:#E1EFFF"/>
					<stop  offset="1" style="stop-color:#BACDDD"/>
				</linearGradient>
				<path class="st42" d="M1367.45,341.69c-2.27,5.74-6.85,10.22-12.51,11.42l-130.42,27.9c-11.37,2.44-21.7-5.13-22.86-16.94
					l-19.34-198.19l-2.57-26.34c-0.24-2.51-0.05-4.92,0.52-7.14c2.14-8.25,9.47-14.06,18.64-13.91l133.35,2.17
					c8.96,0.14,16.89,8.46,17.88,18.57l2.2,22.55l2.99,30.67c0.01,0.03,0.01,0.04,0.01,0.04l13.55,138.95
					C1369.25,335.02,1368.69,338.54,1367.45,341.69z"/>
				
					<linearGradient id="SVGID_38_" gradientUnits="userSpaceOnUse" x1="1205.438" y1="768.371" x2="1379.3973" y2="768.371" gradientTransform="matrix(0.9979 0.0643 0.0643 -0.9979 -72.7616 827.4899)">
					<stop  offset="0" style="stop-color:#459DE5"/>
					<stop  offset="1" style="stop-color:#09AF8F"/>
				</linearGradient>
				<path class="st43" d="M1352.35,161.77l-5.21,0.13l-159.82,3.85l-5,0.12l-2.57-26.34c-0.24-2.51-0.05-4.92,0.52-7.14
					c2.14-8.25,9.47-14.06,18.64-13.91l133.35,2.17c8.96,0.14,16.89,8.46,17.88,18.57L1352.35,161.77z"/>
				<path class="st10" d="M1327.27,348.54l-99.01,19.08c-6.7,1.29-12.74-3.35-13.42-10.37l-0.51-5.28l-13.48-138.16l-0.23-2.35
					c-0.69-7.02,4.32-12.94,11.12-13.22l100.47-4.15c5.58-0.23,10.56,4.67,11.18,10.95l0.07,0.74l12.38,126.98l0.25,2.53
					C1336.7,341.55,1332.78,347.48,1327.27,348.54z"/>
				<path class="st44" d="M1338.74,334.79l-99.01,19.08c-6.7,1.29-12.74-3.35-13.42-10.37l-0.51-5.28l-13.48-138.16l-0.23-2.35
					c-0.69-7.02,4.32-12.94,11.12-13.22l100.47-4.15c5.58-0.23,10.56,4.67,11.18,10.95l0.07,0.74l12.38,126.98l0.25,2.53
					C1348.16,327.8,1344.24,333.73,1338.74,334.79z"/>
				<g>
					
						<linearGradient id="SVGID_39_" gradientUnits="userSpaceOnUse" x1="1173.4294" y1="627.5065" x2="1281.761" y2="627.5065" gradientTransform="matrix(0.9953 -0.0971 -0.0971 -0.9953 120.2052 1009.4549)">
						<stop  offset="0" style="stop-color:#459DE5"/>
						<stop  offset="1" style="stop-color:#09AF8F"/>
					</linearGradient>
					<path class="st45" d="M1324.88,210.49l-6.41,39.99l-1.62,10.12c-0.65,3.83-1.91,7.59-3.75,11
						c-3.68,6.88-9.75,12.33-16.91,14.94c-3.6,1.31-7.47,1.91-11.33,1.74c-0.49-0.02-0.98-0.03-1.46-0.06l-2.9-0.42l-0.36-0.06
						l-0.24-0.03l-0.49-0.07c-0.66-0.08-1.32-0.21-1.98-0.2c-0.66-0.01-1.32-0.09-1.98-0.01c-5.32,0.23-10.54,2.68-14.38,6.6
						c-1.94,1.97-3.54,4.28-4.7,6.81l-0.44,0.94c-0.13,0.32-0.24,0.67-0.36,0.99l-0.35,0.99c-0.12,0.34-0.28,0.85-0.42,1.26
						l-1.7,5.28l-3.1,9.63l-17.75,2.91l7.07-17.55l2.1-5.21c0.19-0.45,0.32-0.82,0.55-1.34l0.7-1.58c0.24-0.52,0.46-1.06,0.72-1.58
						l0.83-1.5c2.23-4,5.13-7.55,8.48-10.42c6.61-5.71,14.96-8.67,23-8.28c1-0.01,1.99,0.16,2.96,0.27c0.99,0.09,1.94,0.35,2.9,0.56
						l2.29,0.54l0.96,0.24c0.32,0.05,0.65,0.08,0.98,0.12c2.6,0.36,5.28,0.2,7.85-0.49c5.13-1.37,9.81-4.89,12.88-9.73
						c1.53-2.4,2.67-5.11,3.37-8.01l2.29-10.02l9.02-39.45L1324.88,210.49z"/>
					
						<linearGradient id="SVGID_40_" gradientUnits="userSpaceOnUse" x1="1444.8846" y1="539.6044" x2="1467.6456" y2="539.6044" gradientTransform="matrix(0.9845 0.1755 0.1755 -0.9845 -205.9764 487.5203)">
						<stop  offset="0" style="stop-color:#459DE5"/>
						<stop  offset="1" style="stop-color:#09AF8F"/>
					</linearGradient>
					<polygon class="st46" points="1323.84,200.9 1309.44,219.66 1331.66,224.71 					"/>
				</g>
				
					<linearGradient id="SVGID_41_" gradientUnits="userSpaceOnUse" x1="1241.551" y1="722.2416" x2="1363.9375" y2="722.2416" gradientTransform="matrix(0.9979 0.0643 0.0643 -0.9979 -72.7616 827.4899)">
					<stop  offset="0" style="stop-color:#459DE5"/>
					<stop  offset="1" style="stop-color:#09AF8F"/>
				</linearGradient>
				<path class="st47" d="M1334.91,192.01l-122.6,8.04l-0.23-2.35c-0.69-7.02,4.32-12.94,11.12-13.22l100.47-4.15
					c5.58-0.23,10.56,4.67,11.18,10.95L1334.91,192.01z"/>
				
					<linearGradient id="SVGID_42_" gradientUnits="userSpaceOnUse" x1="1264.4518" y1="577.7197" x2="1385.0532" y2="577.7197" gradientTransform="matrix(0.9979 0.0643 0.0643 -0.9979 -72.7616 827.4899)">
					<stop  offset="0" style="stop-color:#459DE5"/>
					<stop  offset="1" style="stop-color:#09AF8F"/>
				</linearGradient>
				<path class="st48" d="M1338.74,334.79l-99.01,19.08c-6.7,1.29-12.74-3.35-13.42-10.37l-0.51-5.28L1347.3,319l0.25,2.53
					C1348.16,327.8,1344.24,333.73,1338.74,334.79z"/>
			</g>
			<path class="st10" d="M1367.45,341.69c-2.27,5.74-6.85,10.22-12.51,11.42l-130.42,27.9c-11.37,2.44-21.7-5.13-22.86-16.94
				l-19.34-198.19l-2.57-26.34c-0.24-2.51-0.05-4.92,0.52-7.14l0.05-0.03c0,0,1.8,13.39,7,33.39c5.42,20.84,14.52,48.86,29.1,76.41
				c8.53,16.12,18.93,32.08,31.58,46.35c3.06,3.45,6.25,6.8,9.58,10.04c18.33,17.81,40.79,31.94,68.24,38.74
				C1338.59,340.46,1352.43,342.04,1367.45,341.69z"/>
			<path class="st8" d="M1355.34,192.44c-0.22-0.88-3.88-15.89-8.2-30.54c-4.04-13.72-8.65-27.13-11.55-28.3
				c-6.06-2.47-155.32-1.21-155.32-1.21c2.14-8.25,9.47-14.06,18.64-13.91l133.35,2.17c8.96,0.14,16.89,8.46,17.88,18.57l2.2,22.55
				L1355.34,192.44z"/>
		</g>
		<path class="st41" d="M1183.71,486.37h186.27c2.56,0,4.63-2.08,4.63-4.63l0,0c0-2.56-2.08-4.63-4.63-4.63h-186.27
			c-2.56,0-4.63,2.08-4.63,4.63l0,0C1179.08,484.3,1181.15,486.37,1183.71,486.37z"/>
		<path class="st41" d="M1183.71,442.75h186.27c2.56,0,4.63-2.08,4.63-4.63l0,0c0-2.56-2.08-4.63-4.63-4.63h-186.27
			c-2.56,0-4.63,2.08-4.63,4.63l0,0C1179.08,440.68,1181.15,442.75,1183.71,442.75z"/>
		
			<linearGradient id="SVGID_43_" gradientUnits="userSpaceOnUse" x1="911.6019" y1="360.965" x2="761.084" y2="360.965" gradientTransform="matrix(1 0 0 -1 0 902)">
			<stop  offset="0" style="stop-color:#E1EFFF"/>
			<stop  offset="1" style="stop-color:#BACDDD"/>
		</linearGradient>
		<polygon class="st49" points="914.19,535.99 914.19,546.08 730.85,546.08 722.39,535.99 		"/>
		
			<linearGradient id="SVGID_44_" gradientUnits="userSpaceOnUse" x1="771.7414" y1="360.965" x2="727.7047" y2="360.965" gradientTransform="matrix(1 0 0 -1 0 902)">
			<stop  offset="0" style="stop-color:#E1EFFF"/>
			<stop  offset="1" style="stop-color:#BACDDD"/>
		</linearGradient>
		<polygon class="st50" points="769.19,535.99 769.19,546.08 730.85,546.08 722.39,535.99 		"/>
		<g>
			
				<linearGradient id="SVGID_45_" gradientUnits="userSpaceOnUse" x1="1074.1616" y1="706.1301" x2="892.9145" y2="559.5749" gradientTransform="matrix(1 0 0 -1 0 902)">
				<stop  offset="0" style="stop-color:#E1EFFF"/>
				<stop  offset="1" style="stop-color:#BACDDD"/>
			</linearGradient>
			<path class="st51" d="M1090.79,196.18v137.23c0,10.55-8.61,19.64-19.38,20.32l-150.7,9.47c-13.48,0.85-24.59-8.24-24.59-20.3
				V185.95c0-8.76,8.08-15.36,17.94-14.74l162.71,10.22C1084.55,181.91,1090.79,188.52,1090.79,196.18z"/>
			
				<linearGradient id="SVGID_46_" gradientUnits="userSpaceOnUse" x1="896.13" y1="707.2502" x2="1090.79" y2="707.2502" gradientTransform="matrix(1 0 0 -1 0 902)">
				<stop  offset="0" style="stop-color:#03344F"/>
				<stop  offset="1" style="stop-color:#0C4A66"/>
			</linearGradient>
			<path class="st52" d="M1090.79,196.18v22.16l-194.66-7.05v-25.35c0-8.77,8.09-15.36,17.95-14.74l162.7,10.22
				C1084.55,181.91,1090.79,188.51,1090.79,196.18z"/>
			<path class="st32" d="M1025.44,199.4c0,4.25-3.62,7.55-8.12,7.36c-4.52-0.19-8.21-3.84-8.21-8.14s3.69-7.59,8.21-7.35
				C1021.82,191.51,1025.44,195.15,1025.44,199.4z"/>
			
				<linearGradient id="SVGID_47_" gradientUnits="userSpaceOnUse" x1="1032.9701" y1="701.8618" x2="1048.76" y2="701.8618" gradientTransform="matrix(1 0 0 -1 0 902)">
				<stop  offset="0" style="stop-color:#459DE5"/>
				<stop  offset="1" style="stop-color:#09AF8F"/>
			</linearGradient>
			<path class="st53" d="M1048.76,200.52c0,4.18-3.5,7.43-7.85,7.24c-4.38-0.19-7.94-3.77-7.94-8s3.57-7.47,7.94-7.24
				C1045.26,192.76,1048.76,196.33,1048.76,200.52z"/>
			
				<linearGradient id="SVGID_48_" gradientUnits="userSpaceOnUse" x1="1056.04" y1="700.7622" x2="1071.33" y2="700.7622" gradientTransform="matrix(1 0 0 -1 0 902)">
				<stop  offset="0" style="stop-color:#ED8191"/>
				<stop  offset="1" style="stop-color:#CC3A59"/>
			</linearGradient>
			<path class="st54" d="M1071.33,201.6c0,4.12-3.39,7.31-7.6,7.13c-4.23-0.18-7.69-3.7-7.69-7.86s3.45-7.35,7.69-7.12
				C1067.93,193.96,1071.33,197.48,1071.33,201.6z"/>
			
				<linearGradient id="SVGID_49_" gradientUnits="userSpaceOnUse" x1="997.0294" y1="617.436" x2="940.1255" y2="612.9728" gradientTransform="matrix(1 0 0 -1 0 902)">
				<stop  offset="0" style="stop-color:#459DE5"/>
				<stop  offset="1" style="stop-color:#09AF8F"/>
			</linearGradient>
			<path class="st55" d="M1039.97,285.19c0,23.77-16.15,44.66-39.18,53.05c-5.93,2.16-12.35,3.5-19.08,3.85
				c-34.29,1.75-63.29-23-63.29-55.36c0-32.35,29-57.83,63.29-56.95c2.82,0.07,5.6,0.32,8.3,0.74
				C1018.66,234.91,1039.97,257.93,1039.97,285.19z"/>
			
				<linearGradient id="SVGID_50_" gradientUnits="userSpaceOnUse" x1="981.71" y1="617.62" x2="1039.97" y2="617.62" gradientTransform="matrix(1 0 0 -1 0 902)">
				<stop  offset="0" style="stop-color:#ED8191"/>
				<stop  offset="1" style="stop-color:#CC3A59"/>
			</linearGradient>
			<path class="st56" d="M1039.97,285.19c0,23.77-16.15,44.66-39.18,53.05l-19.08-52.31l8.3-55.41c12.27,1.88,23.16,7.16,31.6,14.66
				C1032.95,255.26,1039.97,269.47,1039.97,285.19z"/>
			<path class="st32" d="M1021.61,245.18l-39.9,40.75l8.3-55.41C1002.28,232.4,1013.17,237.68,1021.61,245.18z"/>
		</g>
		<path class="st10" d="M707.39,539.97c1.11,2.21,1.84,4.25,2.29,6.11h21.16l-7.44-8.87C718.17,538.37,712.71,539.38,707.39,539.97z
			"/>
		<path class="st10" d="M661.04,494.55h-32.97v-41.72C628.07,452.84,644.65,483.7,661.04,494.55z"/>
		<path class="st10" d="M738.14,533.52c0.37,0.83,0.78,1.66,1.22,2.47h-10.75C731.99,535.17,735.2,534.32,738.14,533.52z"/>
		<path class="st10" d="M735.36,502.98c-0.39,2.18-1.08,7.01-0.89,12.86c-3.27-0.17-6.86-0.31-10.79-0.43
			c-7.32-0.22-13.55-1.04-18.88-2.07c2.22-6.15,5.81-13.22,8.85-18.79h21.71l-4.3-20.08c8.23,7.98,17.24,14.6,25.19,15.67
			C778.04,493.04,736.65,495.83,735.36,502.98z"/>
		<path class="st57" d="M979.43,583.31c-78.22,0-156.44-0.11-234.65-0.44c-1.1,0-38.24-0.44-112.52-1.19
			c-72.94-0.74-109.5-0.85-113.99,11.76c-2.54,7.13,2.44,19.97,35.5,44.99c-5.17-2.03-10.88-3.79-17.15-5.24
			c-18.56-4.3-35.62-11.14-44.32-29.01c-0.85-1.74-2.59-10.78-3.68-19.85c-1.22-10.11-1.62-20.26,0.96-20.26h478.85v1.72
			C968.42,573.21,972.92,579.95,979.43,583.31z"/>
		<path class="st10" d="M384.93,712.93c0,0,102.42,34.07,194.57,50.39c-7.89,15.67-17.69,30.73-27.94,43.9
			c-22.91-1.99-51.03-7.94-80.35-22.4C442.33,770.58,412.29,748.08,384.93,712.93z"/>
		<path class="st10" d="M1070.76,736.65c0,0-13.44-0.21-33.32-1.34c-10.77-38.49-53.86-32.46-53.86-32.46
			c4.21-50.14-31.95-31.51-58.3-11.82c3.53-14,8.11-28.26,14.04-42.37c66.87,15.11,130.32,86.74,131.43,87.98
			C1070.76,736.64,1070.76,736.65,1070.76,736.65z"/>
		<path class="st10" d="M471.49,586.83c-10.45,4.74-14.64,14.05-14.64,14.05c-4.09-15.61-30.26-40.44-56.77-53.56
			c-4.22-10.61-6.88-21.15-8.44-31.22c-0.6-3.88-1.04-7.68-1.34-11.39c-0.55-6.73-0.65-13.15-0.46-19.09
			c0.74-22.96,5.76-38.94,5.91-39.44l0.01-0.01c0,0-1.87,54.8,37.38,77.35C461.22,539.66,469.22,570.57,471.49,586.83z"/>
		<path class="st10" d="M914.19,535.99h-145l7.7-21.16l23.47-64.45C800.36,450.38,799.1,532.36,914.19,535.99z"/>
		<polygon class="st10" points="914.19,536.1 914.19,535.99 914.23,535.99 		"/>
		<path class="st10" d="M896.13,288.74v41.55c-8.54,1.05-14.51,4.51-14.51,4.51c-7.81-34.65-27.41-35.87-37.11-18.57
			c-17.91-24.58-27.35-52.17-32.31-75.47c-6.38-30.04-5.29-52.92-5.29-52.92S845.41,255.99,896.13,288.74z"/>
		<path class="st10" d="M1039.74,759.76c-0.45,9.11-2.23,16.18-4.93,21.59c-16.63,33.32-68.69,3.98-68.69,3.98
			s-13.21,42.01-50.91,24.68c-0.33-4.94-0.63-10.65-0.78-17.01c35.85,1.19,39.94-35.65,39.94-35.65s17.85,22.12,54.33,18.63
			c36.49-3.49,18.02-59.85,18.02-59.85h0.01c4.56,4.66,8.38,10.88,10.69,19.17C1039.32,742.02,1040.23,750.08,1039.74,759.76z"/>
		<path class="st10" d="M473.81,693.89c-7.2,0.2-14.12,0.71-20.69,1.44c-18.6-9.41-33.5-24.6-10.59-46.2c0,0-46.5,1.63-76.8-20.65
			c-15.15-11.15-26.25-28.27-25.44-54.59c0.71-22.84,10.06-32.93,23.17-34.97c-5.24,5.64-19.26,24.98-0.2,55.03
			c22.9,36.09,109.12,40.9,109.12,40.9s-26.44,16.54-21.79,36.33C452.34,678.56,462.17,686.65,473.81,693.89z"/>
		<path class="st10" d="M931.46,375.38c-1.95,22.92-8.87,39.12-17.95,50.55c-19.78-0.31-47.48-8.45-65.16-46.18
			c-10.81-23.09-11.27-43.24-6.8-56.73c-6.36,30.24,24.99,88.26,59.66,84.44C923.07,405.06,929.62,387.8,931.46,375.38z"/>
		<path class="st10" d="M785.61,419.21c-0.09,1.09-0.24,2.27-0.43,3.47c-0.27,1.63-0.67,3.31-1.23,4.9
			c-28.04,8.41-37.82-36.64-38.36-39.23c0-0.04-0.01-0.07-0.01-0.09c0.65,1.16,19.67,35.35,38.7,31.33
			C784.73,419.48,785.18,419.35,785.61,419.21z"/>
		<path class="st10" d="M1099.56,352.93c0.47,8.35-5.63,15.63-13.94,16.63c-13.97,1.69-33.44,4.74-54.62,8.33
			c-35.52,6.01-75.86,13.54-103.18,18.74c2.62-9.65,4.16-20.95,4.21-34.15l98.97-6.21l40.41-2.54c10.76-0.68,19.38-9.77,19.38-20.32
			V196.18L1099.56,352.93z"/>
		<path class="st10" d="M594.05,724.92c-27.6-16.63-55.38-25.22-81.28-28.89c11.76,1.43,48.66,4.84,60.35-6.86
			c13.97-13.97-19.36-50.74-19.36-50.74C595.32,654.72,602.83,688.7,594.05,724.92z"/>
		<path class="st10" d="M594,725.11c-3.09,12.7-8.18,25.64-14.51,38.21c-7.89,15.67-17.69,30.73-27.94,43.9
			c-22.91-1.99-51.03-7.94-80.35-22.4C568.9,809.92,592.78,729.49,594,725.11z"/>
		<path class="st10" d="M954.77,804.21c-8.01,8.32-20.72,14.46-39.55,5.81c-0.33-4.94-0.63-10.65-0.78-17.01
			c-0.62-26.08,1.02-62.97,10.82-101.89c-0.58,3.26-16.98,95.96,9.71,107.77C943.46,802.64,949.91,804.05,954.77,804.21z"/>
		<path class="st11" d="M745.57,388.22c0,0,3,19.88-0.48,31.68c-4.26-0.1-7.93,0.06-11.04,0.34c0.01-11.98,0.03-25.13,0.03-38.78
			C737.51,385.01,741.97,387.83,745.57,388.22z"/>
		<path class="st10" d="M812.91,358.78c0,0-1.36,2.04-10.63,5.73c0,0-8.32-0.14-19.63-2.46c-11.31-2.32-23.04,8.46-23.04,10.36
			c0,1.91-2.32,14.73-2.32,14.73l-4.91-0.68c0,0-1.12-21.53-15.25-21.02c0,0,11.34-5.51,17.93,13.7c-0.34-1.03,0.55-2.36,0.71-3.37
			c0.26-1.63-0.14-3.1-0.46-4.69c-0.57-2.87,0.41-4.61,2.42-6.55c2.65-2.56,6.04-4.4,9.46-5.7c10.59-4.02,22.31-2.47,32.12,2.9
			l6.6-2.2c0,0-8.93-5.7-8.83-13.42C797.1,346.11,804.87,358.37,812.91,358.78z"/>
		<path class="st8" d="M1447.62,51.55H942.8c7.52-8.22,18.34-13.38,30.34-13.38h444.12C1429.28,38.16,1440.1,43.33,1447.62,51.55z"
			/>
		<path class="st10" d="M1337.74,342.86c-0.44-0.15-0.74-0.25-0.84-0.28c0.09,0,0.31,0.02,0.66,0.05
			C1337.6,342.7,1337.66,342.78,1337.74,342.86z"/>
		<polygon class="st8" points="711.83,384.57 485.66,384.57 482.47,369.69 708.64,369.69 		"/>
		<path class="st8" d="M1161.69,415.97l-192.26,14.68c1.99-4.93,6.73-8.68,12.32-9.16l49.25-4.23l113.24-9.71
			c4.85-0.41,9.28,0.78,12.64,3.06C1158.95,412.01,1160.62,413.84,1161.69,415.97z"/>
		<path class="st8" d="M1088.99,189.24l-192.47-6.57c1.73-7.06,8.98-12,17.56-11.46l17.96,1.13l98.96,6.21l45.77,2.87
			C1082.03,181.76,1086.59,184.89,1088.99,189.24z"/>
		<path class="st8" d="M808.4,347.73c-28.36-31.95-48.66-4.5-48.66-4.5c-28.53-9.7-28.05,23.49-28.05,23.49
			c-2.37-6.1-3.56-14.16,2.02-21.02c5.59-6.89,11.65-8.33,16.12-8.16c4.03,0.16,6.78,1.62,6.78,1.62s11.32-12.54,27.54-11.04
			C800.11,329.59,808.15,347.19,808.4,347.73z"/>
		<path class="st8" d="M1070.74,736.59c-0.71-2.11-17.74-52.28-57.76-85.71c-21.13-17.65-43.17-26.5-59.52-30.91
			c0.83-1.48,1.71-2.95,2.59-4.41c12.8,3.23,26.79,8.23,40.59,15.88C1028.12,648.93,1058.47,680.32,1070.74,736.59z"/>
		<path class="st8" d="M1026.74,716.14c-24.28-14.7-49.58-5.75-49.58-5.75s6.64-19.09-4.53-30.49
			c-11.16-11.41-47.36,11.21-47.36,11.21c0.01-0.06,0.02-0.09,0.02-0.09c26.34-19.69,62.5-38.32,58.3,11.82
			C983.58,702.85,1010.11,699.14,1026.74,716.14z"/>
		<path class="st8" d="M594.05,724.92c0,0-0.02,0.06-0.05,0.19c-103.37-48.48-207.12-12.86-209.05-12.19
			c0.98-0.46,28.25-13.12,68.17-17.59C492.22,690.96,543.45,694.44,594.05,724.92z"/>
		<path class="st8" d="M505.75,546.08h-5.46c-0.2-5.11-1.87-11.47-6.09-19.32c-15.27-28.38-39.59-31.38-68.18-47.16
			s-30.27-33.43-30.27-33.43s3.94,8.51,16.97,19.4c3.83,3.19,8.44,6.59,13.96,10.05c2.8,1.75,5.83,3.51,9.11,5.27
			c6.36,3.39,13.65,6.77,22.02,9.97c50.27,19.24,47.16,52.75,47.16,52.75S505.27,544.56,505.75,546.08z"/>
		<path class="st8" d="M745.09,419.9c0,0,3.56,2.8,8.44,6.02c-15.33,0.75-25.49,2.13-32.11,3.49l-1.3-6.07
			C722.59,422.25,730.2,419.57,745.09,419.9z"/>
		<path class="st8" d="M821.65,450.38h-5.04c-8.58-10.64-18.66-18.21-32.97-21.96c0.73-1.82,1.22-3.83,1.54-5.75
			C800.27,426.06,814.87,433.62,821.65,450.38z"/>
		<path class="st8" d="M488.62,584.33c-22.92,2.8-33.75,25.41-33.75,25.41c-17.59-55.37-91.4-70.81-91.4-70.81
			c3.07-0.48,6.36-0.51,9.78-0.17c8.38,0.86,17.62,4,26.83,8.56c26.51,13.12,52.67,37.95,56.77,53.56
			C456.85,600.88,465.4,581.86,488.62,584.33z"/>
		<rect x="472.39" y="546.08" class="st8" width="496.03" height="4.31"/>
		<g>
			
				<linearGradient id="SVGID_51_" gradientUnits="userSpaceOnUse" x1="562.3202" y1="97.5915" x2="593.5057" y2="97.5915" gradientTransform="matrix(-1 0 0 -1 2007.2976 902)">
				<stop  offset="0" style="stop-color:#03344F"/>
				<stop  offset="1" style="stop-color:#0C4A66"/>
			</linearGradient>
			<path class="st58" d="M1428.78,783.07l-8.74,13.7c0,0-5.69,19.78-6.24,25.22c-0.55,5.43,26.88,4.57,30.34,0
				s-4.92-37.83-4.92-37.83L1428.78,783.07z"/>
			
				<linearGradient id="SVGID_52_" gradientUnits="userSpaceOnUse" x1="654.5453" y1="96.6242" x2="685.4421" y2="96.6242" gradientTransform="matrix(-1 0 0 -1 2007.2976 902)">
				<stop  offset="0" style="stop-color:#03344F"/>
				<stop  offset="1" style="stop-color:#0C4A66"/>
			</linearGradient>
			<path class="st59" d="M1339.01,785.01l7.91,7.63c0,0,6.41,23.65,5.79,29.99c-0.61,6.34-28.42,1.23-30.47,0
				c-2.04-1.23,4.7-36.4,4.7-36.4L1339.01,785.01z"/>
			
				<linearGradient id="SVGID_53_" gradientUnits="userSpaceOnUse" x1="744.3892" y1="547.9405" x2="771.0281" y2="551.1556" gradientTransform="matrix(-1 0 0 -1 2007.2976 902)">
				<stop  offset="0" style="stop-color:#FFD7DF"/>
				<stop  offset="1" style="stop-color:#FFA6B7"/>
			</linearGradient>
			<path class="st60" d="M1271.4,367.88l-0.26-9.73c0,0-4.24-8.4-5.46-15.76c-1.23-7.36-12.13-16.9-12.81-15.68
				c-0.68,1.23,2.73,11.45,0.82,12.95s-20.45-5.18-22.63-3.27s17.72,8.32,17.72,8.32s-22.63-2.04-23.58,0.55s23.72,4.5,23.72,4.5
				s-20.45,1.09-20.72,4.09s20.09,1.09,20.09,1.09s-15.32,4.91-14.78,7.91s19.77-5.45,22.22-4.09c2.45,1.36,9.13,21.81,9.13,21.81
				L1271.4,367.88z"/>
			
				<linearGradient id="SVGID_54_" gradientUnits="userSpaceOnUse" x1="601.7769" y1="197.3252" x2="572.7973" y2="203.5351" gradientTransform="matrix(-1 0 0 -1 2007.2976 902)">
				<stop  offset="0" style="stop-color:#FFD7DF"/>
				<stop  offset="1" style="stop-color:#FFA6B7"/>
			</linearGradient>
			<path class="st61" d="M1383.45,631.54c0,0,8.51,25.05,17.48,60.35c7.75,30.48,15.85,68.6,19.1,104.87c0,0,12.7,17.4,20.23-2.32
				c5.32-13.94,5.25-61.49-0.85-110.29c-2.52-20.21-6.08-40.64-10.71-58.99C1412.89,562.55,1383.45,631.54,1383.45,631.54z"/>
			
				<linearGradient id="SVGID_55_" gradientUnits="userSpaceOnUse" x1="699.0695" y1="195.0398" x2="664.3975" y2="190.8999" gradientTransform="matrix(-1 0 0 -1 2007.2976 902)">
				<stop  offset="0" style="stop-color:#FFD7DF"/>
				<stop  offset="1" style="stop-color:#FFA6B7"/>
			</linearGradient>
			<path class="st62" d="M1315.3,625.79c0,0,0.53,26.31,1.6,58.22c1.59,47.51,4.39,107.44,8.47,111.35
				c6.79,6.54,21.55-2.72,21.55-2.72c0-33.82,4.49-74.78,9.06-107.65c4.7-33.9,9.48-59.2,9.48-59.2H1315.3z"/>
			<linearGradient id="SVGID_56_" gradientUnits="userSpaceOnUse" x1="1317.476" y1="539.5532" x2="1464.9601" y2="554.3016">
				<stop  offset="0" style="stop-color:#03344F"/>
				<stop  offset="1" style="stop-color:#0C4A66"/>
			</linearGradient>
			<path class="st63" d="M1464.69,639.97c0,0-0.01,0-0.02,0.01c-0.02,0.02-0.06,0.06-0.12,0.11c-0.01,0-0.03,0.02-0.04,0.03
				c-0.08,0.07-0.19,0.16-0.33,0.28c-0.01,0.01-0.03,0.02-0.05,0.05c-0.48,0.4-1.28,1.02-2.41,1.8c-0.19,0.13-0.4,0.27-0.61,0.42
				c-0.64,0.44-1.38,0.91-2.21,1.41c-0.01,0-0.01,0.01-0.01,0.01c-0.61,0.38-1.28,0.77-1.99,1.16c-0.54,0.3-1.11,0.61-1.71,0.93
				c-0.4,0.21-0.81,0.42-1.23,0.64c-1.26,0.64-2.64,1.3-4.14,1.96c-0.53,0.22-1.07,0.45-1.62,0.69c-8.43,3.54-20.34,7.11-36.23,8.84
				c-23.38,2.57-55.42,1.16-97.77-10.16c0,0-18.39-115.86,11.76-179c1.42-2.98,2.95-5.84,4.6-8.57
				c36.53-60.52,88.88-7.09,88.88-7.09l18.05,6.96l6.01,2.31c0,0-0.07,36.53-10.97,62.16
				C1421.63,550.55,1464.69,639.97,1464.69,639.97z"/>
			<path class="st64" d="M1464.69,639.97c0,0-0.01,0-0.02,0.01c-0.02,0.02-0.06,0.05-0.12,0.11c-0.01,0-0.03,0.02-0.04,0.03
				c-0.08,0.07-0.19,0.16-0.33,0.28c-0.01,0.01-0.03,0.02-0.05,0.05c-0.47,0.38-1.27,1.01-2.41,1.8c-0.19,0.13-0.4,0.27-0.61,0.42
				c-0.53,0.35-1.11,0.73-1.76,1.13c-0.15,0.09-0.3,0.18-0.45,0.28c-0.01,0-0.01,0.01-0.01,0.01c-0.61,0.37-1.28,0.75-1.99,1.16
				c-0.54,0.3-1.11,0.61-1.71,0.93c-0.4,0.21-0.81,0.42-1.23,0.64c-1.26,0.63-2.64,1.29-4.14,1.96c-0.53,0.22-1.07,0.45-1.62,0.69
				c-3.75,1.56-8.18,3.13-13.34,4.56c-6.46,1.78-14.06,3.31-22.89,4.28c-6.04,0.65-12.67,1.06-19.9,1.08
				c-6.43,0.03-13.32-0.23-20.73-0.87c92.03-18.69,42.97-29.95,16.77-36.44s52.59-128.05,15.33-127.97
				c-37.27,0.08-77.48-24.96-77.48-24.96c7.54,2.81,21.06,7.04,37.95,8.83c24.87,2.62,45.33-1.97,58.14-5.85
				c5.42-4.34,10.56-8.24,15.44-11.68l6.01,2.31c0,0-0.07,36.53-10.97,62.16C1421.63,550.55,1464.69,639.97,1464.69,639.97z"/>
			
				<linearGradient id="SVGID_57_" gradientUnits="userSpaceOnUse" x1="610.4883" y1="569.4592" x2="622.2103" y2="438.1732" gradientTransform="matrix(-1 0 0 -1 2007.2976 902)">
				<stop  offset="0" style="stop-color:#459DE5"/>
				<stop  offset="1" style="stop-color:#09AF8F"/>
			</linearGradient>
			<path class="st65" d="M1319.38,466.43c0,0,67.89,32.72,131.68-8.18c0,0-19.59-17.38-23.31-37.61
				c-3.72-20.23-0.82-41.72-0.82-41.72s-29.44-32.72-41.71-42.53s-18.81-18.81-23.31-19.22s-12.77,29.04-17.22,30.67
				c-4.45,1.64-10.59,22.49-10.59,22.49s19.22,23.31,15.13,38.03S1319.38,466.43,1319.38,466.43z"/>
			
				<linearGradient id="SVGID_58_" gradientUnits="userSpaceOnUse" x1="721.8399" y1="539.1005" x2="726.9222" y2="482.1779" gradientTransform="matrix(-1 0 0 -1 2007.2976 902)">
				<stop  offset="0" style="stop-color:#459DE5"/>
				<stop  offset="1" style="stop-color:#09AF8F"/>
			</linearGradient>
			<path class="st66" d="M1308.2,383.15c0,0-27.54-5.45-35.71-26.72c0,0-13.09,15.81-13.36,26.72c0,0,23.13,38.42,30.92,44.02
				c7.79,5.6,12.15-27.94,12.15-27.94L1308.2,383.15z"/>
			
				<linearGradient id="SVGID_59_" gradientUnits="userSpaceOnUse" x1="670.3585" y1="598.2509" x2="680.4975" y2="484.693" gradientTransform="matrix(-1 0 0 -1 2007.2976 902)">
				<stop  offset="0" style="stop-color:#459DE5"/>
				<stop  offset="1" style="stop-color:#09AF8F"/>
			</linearGradient>
			<path class="st67" d="M1375.27,337.89c0,0-75.79,91.06-82.88,90.24s-12-18.54,4.91-51.8s61.34-81.24,61.34-81.24L1375.27,337.89z
				"/>
			
				<linearGradient id="SVGID_60_" gradientUnits="userSpaceOnUse" x1="539.8777" y1="591.9431" x2="662.6055" y2="591.9431" gradientTransform="matrix(-1 0 0 -1 2007.2976 902)">
				<stop  offset="0" style="stop-color:#03344F"/>
				<stop  offset="1" style="stop-color:#0C4A66"/>
			</linearGradient>
			<path class="st68" d="M1434.7,404.41l19.58-36.8l-13.24-23.25l20.32,9.94l6.06-11.38c-29.85-31.49-40.08-57.25-43.34-94.05
				c-3.28-36.81-76.89-62.57-79.34,33.12C1342.29,377.69,1434.7,404.41,1434.7,404.41z"/>
			
				<linearGradient id="SVGID_61_" gradientUnits="userSpaceOnUse" x1="563.1732" y1="158.0004" x2="606.3676" y2="158.0004" gradientTransform="matrix(-1 0 0 -1 2007.2976 902)">
				<stop  offset="0" style="stop-color:#459DE5"/>
				<stop  offset="1" style="stop-color:#92D3FF"/>
			</linearGradient>
			<path class="st69" d="M1400.93,691.89c7.75,30.48,15.85,68.6,19.1,104.87c0,0,12.7,17.4,20.23-2.32
				c5.32-13.94,5.25-61.49-0.85-110.29C1429.1,689.14,1415.29,693.61,1400.93,691.89z"/>
			
				<linearGradient id="SVGID_62_" gradientUnits="userSpaceOnUse" x1="651.3175" y1="161.1463" x2="690.3976" y2="161.1463" gradientTransform="matrix(-1 0 0 -1 2007.2976 902)">
				<stop  offset="0" style="stop-color:#459DE5"/>
				<stop  offset="1" style="stop-color:#92D3FF"/>
			</linearGradient>
			<path class="st70" d="M1316.9,684.01c1.59,47.51,4.39,107.44,8.47,111.35c6.79,6.54,21.55-2.72,21.55-2.72
				c0-33.82,4.49-74.78,9.06-107.65C1346.68,686.89,1331.76,688.47,1316.9,684.01z"/>
			<path class="st10" d="M1319.4,466.42c0.79-0.91,34.34-39.26,42.39-59.98c6.64-17.08-0.25-40.78-3.02-48.98
				c-5.46,6.43-11.85,13.89-18.48,21.51c5.21,8.13,11.46,20.38,8.96,29.39c-0.04,0.14-0.08,0.27-0.13,0.41
				c-2.36,8.07-10.7,24-17.95,37.08c-1.84,3.34-3.62,6.48-5.21,9.27C1322.23,461.62,1319.55,466.14,1319.4,466.42z"/>
			<path class="st10" d="M1346.66,308.57c3,16.97,9.24,31.2,17.08,43.04c19.15,28.94,47.83,43.68,62.16,49.59
				c5.43,2.24,8.8,3.22,8.8,3.22l19.58-36.8l-13.24-23.25l4.19,28.26c0,0-46.95-2.85-65.59-68.54c0,0-6.22,35.99,46.57,82.75
				c0,0-44.58-16.96-66.14-68.54c-21.57-51.57-3.43-84.06,11.36-99.26c-11.32,5.63-21.05,18.9-24.95,43.11
				c-0.95,5.95-1.56,12.54-1.75,19.85C1344.49,291.53,1345.21,300.36,1346.66,308.57z"/>
			<path class="st10" d="M1286.43,407.31c1.12-7.49,4.02-16.94,9.55-28.32c-1.87-0.85-3.86-1.85-5.85-3.03
				c-0.79-0.47-1.6-0.97-2.39-1.51C1286.53,383.28,1284.74,399.43,1286.43,407.31z"/>
			<path class="st10" d="M1392.07,659.39c0.48,1.64,0.96,3.34,1.46,5.09l33.45,3.25c0,0,1.69,7.11,3.45,20.21
				c3.05,22.66,6.31,63.25,1.38,115.86c2.94-0.41,5.97-2.88,8.44-9.35c0.27-0.73,0.53-1.55,0.78-2.44
				c4.52-16.42,4.16-61.57-1.62-107.85c-1.27-10.08-2.78-20.21-4.55-30.12C1423.99,657.03,1409.87,659.32,1392.07,659.39z"/>
			<path class="st10" d="M1316.01,654.97c8.14,4.26,21.39,10.11,33.1,10.35c0,0-1.1,8.23-2.51,21.1
				c-2.97,27.02-7.37,74.52-6.02,109.35c3.63-1.43,6.34-3.13,6.34-3.13c0-33.82,4.49-74.78,9.06-107.65
				c1.41-10.13,2.83-19.49,4.11-27.66c-13.27-1.68-27.99-4.48-44.24-8.76C1315.89,650.6,1315.95,652.74,1316.01,654.97z"/>
			<path class="st8" d="M1295.98,378.99c24.12-33.23,41.33-50.83,52.99-60.11c-0.9-3.32-1.68-6.75-2.31-10.31
				c-3.11,3.59-6.65,7.75-10.4,12.29c-3.42,4.15-7.03,8.61-10.65,13.25c-10.08,12.92-20.25,27.17-26.96,39.65
				c-0.46,0.86-0.91,1.73-1.34,2.57C1296.84,377.23,1296.41,378.12,1295.98,378.99z"/>
			<path class="st8" d="M1370.41,219.57c26.48-3.54,49.85,7.69,53.48,54.1c3.62,46.41,38.55,68.73,38.55,68.73l-1.07,11.9
				l6.05-11.38c-29.85-31.48-40.08-57.25-43.34-94.05c-1.22-13.62-12.06-25.71-25.36-30.72c-8.71-3.28-18.47-3.5-27.27,0.87
				l-0.01,0.01C1371.09,219.21,1370.75,219.39,1370.41,219.57z"/>
		</g>
		<path class="st71" d="M1088.35,342.86c-3.29,6.05-9.61,10.41-16.93,10.87l-40.41,2.54l-98.97,6.21l-11.32,0.72
			c-13.48,0.84-24.59-8.24-24.59-20.31V185.94c0-1.13,0.14-2.23,0.39-3.28c0,0,3.54,11.82,11.31,29.05
			c5.38,11.93,12.78,26.45,22.44,41.43c18.99,29.49,46.71,60.79,84.86,77.67C1036.24,340.16,1060.56,345.09,1088.35,342.86z"/>
		<path class="st72" d="M657.79,699.37c-20.72,65.13,6.2,106.94,34.52,131.34H530.85c6.81-6.73,13.85-14.69,20.7-23.49
			c18.51-23.79,35.57-53.74,42.5-82.3c8.78-36.22,1.27-70.2-40.29-86.49c-5.17-2.03-10.88-3.79-17.15-5.24
			c-18.56-4.3-35.62-11.14-44.32-29.01c-0.85-1.74-2.59-10.78-3.68-19.85c-1.22-10.11-1.62-20.26,0.96-20.26h288.64
			C735.91,587.29,679.92,629.83,657.79,699.37z"/>
		<g>
			
				<linearGradient id="SVGID_63_" gradientUnits="userSpaceOnUse" x1="146.6292" y1="117.3267" x2="138.1031" y2="90.7647" gradientTransform="matrix(0.9982 -0.0602 -0.0602 -0.9982 56.0816 912.3509)">
				<stop  offset="0" style="stop-color:#ED8191"/>
				<stop  offset="1" style="stop-color:#CC3A59"/>
			</linearGradient>
			<path class="st73" d="M173.45,780.94c0,0-5.37,15.09-4.71,21.46c0.66,6.37,4.54,11.87,9.83,13.47
				c5.29,1.59,30.92,5.51,32.61,1.86s-21.43-20.28-19.01-34.36C194.6,769.29,173.45,780.94,173.45,780.94z"/>
			
				<linearGradient id="SVGID_64_" gradientUnits="userSpaceOnUse" x1="241.5328" y1="114.0561" x2="233.0067" y2="87.4942" gradientTransform="matrix(0.9982 -0.0602 -0.0602 -0.9982 56.0816 912.3509)">
				<stop  offset="0" style="stop-color:#ED8191"/>
				<stop  offset="1" style="stop-color:#CC3A59"/>
			</linearGradient>
			<path class="st74" d="M268.38,778.49c0,0-5.37,15.09-4.71,21.46s4.54,11.87,9.83,13.47c5.29,1.59,30.92,5.51,32.61,1.86
				c1.69-3.65-21.43-20.28-19.01-34.36C289.53,766.84,268.38,778.49,268.38,778.49z"/>
			
				<linearGradient id="SVGID_65_" gradientUnits="userSpaceOnUse" x1="274.4662" y1="288.2879" x2="303.187" y2="285.9591" gradientTransform="matrix(1 0 0 -1 0 902)">
				<stop  offset="0" style="stop-color:#03344F"/>
				<stop  offset="1" style="stop-color:#0C4A66"/>
			</linearGradient>
			<path class="st75" d="M243.17,528.99l14.01,15.45c0,0,13.06,76.07,13.13,107.2s-15.34,68.98-1.63,134.64
				c0,0,6.75,14.5,17.68-1.07s54.46-281.94,28.26-327.11c-26.2-45.17-71.34-7.88-71.34-7.88L243.17,528.99z"/>
			
				<linearGradient id="SVGID_66_" gradientUnits="userSpaceOnUse" x1="187.033" y1="289.0274" x2="224.6806" y2="281.265" gradientTransform="matrix(1 0 0 -1 0 902)">
				<stop  offset="0" style="stop-color:#03344F"/>
				<stop  offset="1" style="stop-color:#0C4A66"/>
			</linearGradient>
			<path class="st76" d="M198.79,776.81c-2.23,10.26-13.27,16.35-22.88,12.14c-2.62-1.15-4.78-2.89-5.86-5.49
				c-4.31-10.39,7.09-93.02,17.63-128.89c10.54-35.87-3.99-123.08,1.78-148.42c5.77-25.34,21.42-51.16,21.42-51.16l80.04,0.77
				c0,0-43.37,138.65-61.77,200.39C215.62,701.58,204,752.86,198.79,776.81z"/>
			
				<linearGradient id="SVGID_67_" gradientUnits="userSpaceOnUse" x1="329.896" y1="563.4711" x2="339.5989" y2="568.1285" gradientTransform="matrix(1 0 0 -1 0 902)">
				<stop  offset="0" style="stop-color:#459DE5"/>
				<stop  offset="1" style="stop-color:#92D3FF"/>
			</linearGradient>
			<path class="st77" d="M292.64,318.86l17.95-40.23c0,0,40.65,17.5,49.88,82.26s-41.6,25.62-43.55,22.87
				c-1.95-2.75-3.3-11.55-3.84-13.83S292.64,318.86,292.64,318.86z"/>
			
				<linearGradient id="SVGID_68_" gradientUnits="userSpaceOnUse" x1="268.984" y1="474.6615" x2="258.1167" y2="589.5448" gradientTransform="matrix(1 0 0 -1 0 902)">
				<stop  offset="0" style="stop-color:#459DE5"/>
				<stop  offset="1" style="stop-color:#92D3FF"/>
			</linearGradient>
			<path class="st78" d="M195.41,341.11c0,0,19.73,41.81,13.28,57.16s-17.29,73.36-17.29,73.36s115.37,12.3,146.87-2.71
				c31.5-15.01-5.08-118.91-5.08-118.91s-2.53-51.06-14.69-64.67s-30.78-14.12-30.78-14.12s-58.76,12.62-60.53,14.95
				C225.42,288.5,195.41,341.11,195.41,341.11z"/>
			
				<linearGradient id="SVGID_69_" gradientUnits="userSpaceOnUse" x1="198.5844" y1="468.002" x2="187.717" y2="582.8853" gradientTransform="matrix(1 0 0 -1 0 902)">
				<stop  offset="0" style="stop-color:#459DE5"/>
				<stop  offset="1" style="stop-color:#92D3FF"/>
			</linearGradient>
			<path class="st79" d="M183.54,407.96l-50.93-1.68c0,0,7.02-54.84,33.42-92.75s75.05-46.31,75.05-46.31l7.8,28.75
				C248.87,295.96,189.8,361.04,183.54,407.96z"/>
			
				<linearGradient id="SVGID_70_" gradientUnits="userSpaceOnUse" x1="228.6942" y1="510.2161" x2="221.3333" y2="486.1961" gradientTransform="matrix(0.9982 -0.0602 -0.0602 -0.9982 56.0816 912.3509)">
				<stop  offset="0" style="stop-color:#FFD7DF"/>
				<stop  offset="1" style="stop-color:#FFA6B7"/>
			</linearGradient>
			<path class="st80" d="M275.02,395.76l-10.53,22.1c0,0-1.92-0.33-4.65-0.88c-4.87-0.96-12.33-2.59-16.17-4.2
				c-5.99-2.52-12.83-0.47-12.83-0.47l-1.14-18.83c0,0,5.23-0.43,10.05-1.28c3.63-0.63,7.01-1.51,7.73-2.6
				c1.69-2.57,16.95-18.23,21.27-17.88c2.91,0.25,4.75,11.19,5.63,18.22c0.2,1.56,0.34,2.92,0.44,3.94
				C274.96,395.04,275.02,395.76,275.02,395.76z"/>
			
				<linearGradient id="SVGID_71_" gradientUnits="userSpaceOnUse" x1="369.4161" y1="474.8125" x2="362.8335" y2="453.3324" gradientTransform="matrix(0.9982 -0.0602 -0.0602 -0.9982 56.0816 912.3509)">
				<stop  offset="0" style="stop-color:#FFD7DF"/>
				<stop  offset="1" style="stop-color:#FFA6B7"/>
			</linearGradient>
			<path class="st81" d="M402.17,414.96c-0.08,2.43-0.24,4.9-0.54,7.33c-0.11,0.95-0.25,1.89-0.41,2.83
				c-0.33,1.89-0.77,3.76-1.34,5.59c-0.65,2.08-1.68,4.37-3.34,5.85c-1.12,0.99-2.84,1.55-4.48,1.91h-0.04
				c-0.74,0.16-1.46,0.27-2.11,0.38c-1.97,0.31-4.4,0.47-6.31-0.31l0.03-0.12l5.86-20.45l5.87-20.5c0,0,5.25-1.33,6.37,5.35
				C402.39,406.79,402.32,410.96,402.17,414.96z"/>
			
				<linearGradient id="SVGID_72_" gradientUnits="userSpaceOnUse" x1="241.8021" y1="472.9237" x2="403.49" y2="472.9237" gradientTransform="matrix(1 0 0 -1 0 902)">
				<stop  offset="0" style="stop-color:#3ACEB2"/>
				<stop  offset="1" style="stop-color:#009377"/>
			</linearGradient>
			<path class="st82" d="M403.49,344.91c-8.38,50.37-16.75,100.74-25.13,151.12c-0.49,2.94-2.23,5.65-4.6,7.56
				c-1.94,1.57-4.31,2.58-6.73,2.73l-56.28,3.39l-60.71,3.66c-2.52,0.16-4.66-0.66-6.12-2.14c-1.66-1.66-2.46-4.14-1.98-6.99
				l21.21-127.55c1.31-7.86,2.62-15.71,3.92-23.56c8.93-1.58,32.23-3.57,57.34-5.21C356.75,345.8,392.1,344.27,403.49,344.91z"/>
			
				<linearGradient id="SVGID_73_" gradientUnits="userSpaceOnUse" x1="260.206" y1="637.2119" x2="249.8439" y2="604.9302" gradientTransform="matrix(0.9982 -0.0602 -0.0602 -0.9982 56.0816 912.3509)">
				<stop  offset="0" style="stop-color:#ED8191"/>
				<stop  offset="1" style="stop-color:#CC3A59"/>
			</linearGradient>
			<path class="st83" d="M258.27,278.32l14.05,13.29l9.69,11.23c0,0,18.75-26.53,2.71-43.45s-22.05-10.17-24.01-6.42
				C258.74,256.72,258.27,278.32,258.27,278.32z"/>
			
				<linearGradient id="SVGID_74_" gradientUnits="userSpaceOnUse" x1="236.3845" y1="637.2685" x2="225.5168" y2="603.4117" gradientTransform="matrix(0.9982 -0.0602 -0.0602 -0.9982 56.0816 912.3509)">
				<stop  offset="0" style="stop-color:#ED8191"/>
				<stop  offset="1" style="stop-color:#CC3A59"/>
			</linearGradient>
			<path class="st84" d="M264.01,278.39l8.31,13.22c0,0-1.52,8.76-5.13,16.9c0,0-40.79-10.61-43.06-30.09
				c-2.27-19.48,32.57-26.09,32.57-26.09L264.01,278.39z"/>
			
				<linearGradient id="SVGID_75_" gradientUnits="userSpaceOnUse" x1="240.1887" y1="647.3211" x2="268.9096" y2="636.8419" gradientTransform="matrix(1 0 0 -1 0 902)">
				<stop  offset="0" style="stop-color:#FFD7DF"/>
				<stop  offset="1" style="stop-color:#FFA6B7"/>
			</linearGradient>
			<path class="st85" d="M242.57,226.42l-6.06,7.71c0,0-2.18,22.08-4.94,27.37c-2.75,5.29-0.16,27.87,40.74,30.11
				c0,0,7.48-8.44,4.95-23.24S242.57,226.42,242.57,226.42z"/>
			
				<linearGradient id="SVGID_76_" gradientUnits="userSpaceOnUse" x1="251.7495" y1="688.8021" x2="239.8236" y2="649.8861" gradientTransform="matrix(0.9982 -0.0602 -0.0602 -0.9982 56.0816 912.3509)">
				<stop  offset="0" style="stop-color:#FFD7DF"/>
				<stop  offset="1" style="stop-color:#FFA6B7"/>
			</linearGradient>
			<path class="st86" d="M284.27,179.66c0,0,2.29,46.98,4.44,57.77c2.15,10.8-32.32,14.38-32.32,14.38s-0.79,4.96-4.43-3.28
				c-3.64-8.25,0.84-4.15-3.64-12.75c-4.48-8.61-6.81-10.41-8.43-17.49c-1.62-7.08-1.54-7.44-0.84-13.91
				c0.7-6.46-2.03-6.57,2.16-9.42c4.2-2.85,16-10.93,16-10.93L284.27,179.66z"/>
			
				<linearGradient id="SVGID_77_" gradientUnits="userSpaceOnUse" x1="217.9653" y1="682.1116" x2="213.8478" y2="668.6756" gradientTransform="matrix(0.9982 -0.0602 -0.0602 -0.9982 56.0816 912.3509)">
				<stop  offset="0" style="stop-color:#FFD7DF"/>
				<stop  offset="1" style="stop-color:#FFA6B7"/>
			</linearGradient>
			<path class="st87" d="M226.95,205.1l-3.62,7.93c0,0-3.29,8.87-0.77,14.45c2.52,5.58,15.37,8.09,15.37,8.09s3.64-9.78,3.53-11.68
				c-0.11-1.9,2.79-8.09,2.6-9.03C243.87,213.92,226.95,205.1,226.95,205.1z"/>
			
				<linearGradient id="SVGID_78_" gradientUnits="userSpaceOnUse" x1="204.3582" y1="680.196" x2="280.2008" y2="680.196" gradientTransform="matrix(0.9982 -0.0602 -0.0602 -0.9982 56.0816 912.3509)">
				<stop  offset="0" style="stop-color:#03344F"/>
				<stop  offset="1" style="stop-color:#0C4A66"/>
			</linearGradient>
			<path class="st88" d="M237.74,220.98c0,0-6.64,34.81,10.8,47.69c17.44,12.88,50.17,7.63,48.5-15.49s-7.13-23.2-22.09-17.51
				s-25.15,8.62-26.71-3.58c-1.55-12.2-1.95-34.57,1.83-35.34s28.57,2.78,36.91-15.2s-7.88-21.92-17.37-11.79
				c0,0,4.02-12.53-19.85-7.54s-42.44,16.35-26.43,50.82C223.33,213.04,235.22,209.86,237.74,220.98z"/>
			
				<linearGradient id="SVGID_79_" gradientUnits="userSpaceOnUse" x1="225.5286" y1="500.8693" x2="220.4711" y2="484.3657" gradientTransform="matrix(0.9982 -0.0602 -0.0602 -0.9982 56.0816 912.3509)">
				<stop  offset="0" style="stop-color:#FFD7DF"/>
				<stop  offset="1" style="stop-color:#FFA6B7"/>
			</linearGradient>
			<path class="st89" d="M274.84,393.87c-2.25,7.03-12.37,20.95-14.04,22.68c-0.21,0.22-0.54,0.35-0.96,0.43
				c-3.82,0.7-15.56-3.86-21.37-3.89c-6.46-0.03-7.55,0.46-7.55,0.46l-1.21-20.07c0,0,5.23-0.43,10.05-1.28
				c0,0,29.79-4.56,34.64-2.26c0.11,0.06,0.2,0.1,0.28,0.16C275.48,390.64,275.43,392.01,274.84,393.87z"/>
			
				<linearGradient id="SVGID_80_" gradientUnits="userSpaceOnUse" x1="160.2353" y1="471.5029" x2="199.8235" y2="507.598" gradientTransform="matrix(1 0 0 -1 0 902)">
				<stop  offset="0" style="stop-color:#459DE5"/>
				<stop  offset="1" style="stop-color:#92D3FF"/>
			</linearGradient>
			<path class="st90" d="M235.34,421.32c0,0-5.51,0.81-13.89,1.9c-24.64,3.21-74.12,8.91-81.35,3.85
				c-9.7-6.79-10.41-32.15,0.22-37.16c8.32-3.93,46.83,0.49,72.24,2.58c7.02,0.58,13.05,0.98,17.16,0.98L235.34,421.32z"/>
			
				<linearGradient id="SVGID_81_" gradientUnits="userSpaceOnUse" x1="226.5519" y1="503.2166" x2="220.0827" y2="483.0627" gradientTransform="matrix(1 0 0 -1 0 902)">
				<stop  offset="0" style="stop-color:#ED8191"/>
				<stop  offset="1" style="stop-color:#CC3A59"/>
			</linearGradient>
			<path class="st91" d="M235.34,421.32c0,0-5.51,0.81-13.89,1.9l-8.9-30.73c7.02,0.58,13.05,0.98,17.16,0.98L235.34,421.32z"/>
			<path class="st10" d="M227.08,422.47c3.46,19.58,9.68,40.6,16.55,53.04c-17.18-0.82-32.49-2.04-42.03-2.89
				c-6.4-0.58-10.2-0.98-10.2-0.98s4.58-24.54,9.57-45.92c7.61-0.85,14.73-1.74,20.48-2.49C223.51,422.94,225.4,422.7,227.08,422.47
				z"/>
			<path class="st10" d="M229.67,375.62c-3.69,1.56-5.34,8.28-5.44,17.69c-3.37-0.17-7.34-0.45-11.68-0.81
				c-0.85-0.07-1.73-0.15-2.61-0.23c0.55-9.32-3.32-22.6-7.19-33.3c5.45-9.42,11.47-18.51,17.33-26.72
				c4.86,12.01,15.82,34.23,29.72,32.17C268.74,361.6,245.47,368.94,229.67,375.62z"/>
			<path class="st10" d="M243.63,475.51c0,0-34.79,8.7-35.57,10.99c-0.78,2.28-11.23,31.7-9.1,76.76
				c2.12,45.06,7.07,62.71-8.99,113.84c-16.06,51.14-19.92,106.37-19.92,106.37c-4.32-10.4,7.09-93.03,17.63-128.89
				c10.54-35.87-3.99-123.08,1.78-148.41c2.74-12.02,7.69-24.13,12.15-33.55C211.14,473.47,226.45,474.69,243.63,475.51z"/>
			<path class="st10" d="M281.77,654.8c-5.9,30.72-16.24,81.05-12.02,133.27c-0.71-1.01-1.07-1.8-1.07-1.8
				c-0.38-1.84-0.74-3.67-1.08-5.47c-11.76-62.3,2.79-98.9,2.72-129.16c-0.06-23.14-7.29-71.12-11-94.21
				c3.24-10.49,6.45-20.83,9.5-30.67C272.97,548.42,287.18,626.66,281.77,654.8z"/>
			<path class="st10" d="M286.99,181.55c-0.7,1.49-1.51,2.82-2.4,4.03c-9.55,12.87-29.49,10.64-34.05,11.1
				c3.55-0.59,26.46-4.83,31.23-17.02c5.17-13.22-7.02-13.76-7.02-13.76C283.8,161.31,293.94,166.54,286.99,181.55z"/>
			<path class="st10" d="M290.32,269.37c-3.37,2.79-7.75,4.63-12.54,5.53c-9.73,1.82-21.14-0.25-29.25-6.23
				c-6.32-4.66-9.47-12.19-10.92-19.92c4.69,11.63,16.67,20.36,16.67,20.36l-2.63-10.1c9.32,13.59,37.01,13.32,40.98,0
				c3.31-11.07-2.18-22.71-4.12-26.33c5.09,0.92,7.51,6.46,8.52,20.49C297.54,260.25,294.83,265.64,290.32,269.37z"/>
			<path class="st8" d="M269.62,169.72l-0.01,0.04c0,0-2.05-6.27-12.39-5.47c-10.35,0.8-31.5,4.88-32.28,23.11
				c-0.48,11.43,3.52,20.65,6.57,25.96c-3.95-1.45-8.18-0.32-8.18-0.32c-16.01-34.47,2.56-45.83,26.43-50.82
				C272.88,157.38,269.84,168.98,269.62,169.72z"/>
			<path class="st8" d="M138.2,378.72c0.01-0.05,0.03-0.1,0.04-0.15c-0.03,0.11-0.04,0.17-0.04,0.17V378.72z"/>
			<path class="st92" d="M224.9,271.65c-0.75,2.06-1.06,4.32-0.78,6.77c0.04,0.34,0.09,0.68,0.16,1.02
				c-60.22,12.74-82.64,86.64-85.72,97.86c4.94-18.91,13.48-43.71,27.45-63.78C182.73,289.53,208.34,277.35,224.9,271.65z"/>
			<path class="st92" d="M355.04,336.66c-2.66-7.09-9.91-21.02-28.64-33.81c-9.17-6.25-21.09-12.23-36.56-17
				c1.21-4.5,1.81-9.48,0.97-14.33c4.25,0.57,12.23,2.25,19.79,7.11c0.01,0,0.01,0.01,0.02,0.01
				C311.57,279.07,341.02,292.36,355.04,336.66z"/>
			<path class="st10" d="M373.76,503.58c-1.94,1.57-4.31,2.58-6.73,2.73l-117,7.06c-2.52,0.16-4.66-0.66-6.12-2.14l68.75-30.53
				L373.76,503.58z"/>
			<path class="st10" d="M403.49,344.91c-8.38,50.37-16.75,100.74-25.13,151.12c-0.49,2.94-2.23,5.65-4.6,7.56
				c-1.94,1.57-4.31,2.58-6.73,2.73l-56.28,3.39c3.78-57.82,10.07-125.14,13.65-161.79C356.75,345.8,392.1,344.27,403.49,344.91z"/>
			
				<linearGradient id="SVGID_82_" gradientUnits="userSpaceOnUse" x1="410.9571" y1="658.0837" x2="333.3437" y2="515.1763" gradientTransform="matrix(1 0 0 -1 0 902)">
				<stop  offset="0" style="stop-color:#E1EFFF"/>
				<stop  offset="1" style="stop-color:#BACDDD"/>
			</linearGradient>
			<path class="st93" d="M488.76,264.27C448.5,285,421,319.42,409.51,335.76c-3.97,5.66-6.02,9.15-6.02,9.15l-84.06,55.95
				l-25.52-23.25l-26.85-24.48c0,0,0-0.01,0.01-0.02c29.62-80.88,84-132.77,84-132.77c9.66,1.92,20.86,4.79,32.63,8.15
				c17.76,5.09,36.8,11.32,53.72,17.16C466.13,255.54,488.76,264.27,488.76,264.27z"/>
			
				<linearGradient id="SVGID_83_" gradientUnits="userSpaceOnUse" x1="288.028" y1="516.8779" x2="329.9146" y2="622.8264" gradientTransform="matrix(1 0 0 -1 0 902)">
				<stop  offset="0" style="stop-color:#03344F"/>
				<stop  offset="1" style="stop-color:#0C4A66"/>
			</linearGradient>
			<path class="st94" d="M383.69,228.49c-22.89,27.52-69.7,88.51-89.78,149.11l-11.53-10.52l-15.32-13.96
				c29.62-80.89,84.01-132.79,84.01-132.79c4.39,0.88,9.11,1.94,14.06,3.17C371.04,224.97,377.28,226.65,383.69,228.49z"/>
			<polygon class="st95" points="403.49,344.91 319.43,400.86 293.91,377.6 267.06,353.13 320.91,384.57 			"/>
			
				<linearGradient id="SVGID_84_" gradientUnits="userSpaceOnUse" x1="359.5363" y1="466.4328" x2="355.8393" y2="454.369" gradientTransform="matrix(0.9982 -0.0602 -0.0602 -0.9982 56.0816 912.3509)">
				<stop  offset="0" style="stop-color:#FFD7DF"/>
				<stop  offset="1" style="stop-color:#FFA6B7"/>
			</linearGradient>
			<path class="st96" d="M401.63,422.3c-0.03,1.54-0.41,2.83-0.41,2.83c-0.33,1.89-0.77,3.76-1.34,5.59
				c-0.65,2.08-1.68,4.37-3.34,5.85c-1.12,0.99-2.84,1.55-4.48,1.91h-0.04c-2.37,0.24-5.44,0.28-8.38-0.05
				c-4.19-0.47-8.09-1.69-9.2-4.15c-1.89-4.18-3.34-14.75,1.86-14.34c2.91,0.23,8.28-1.05,13.2-1.97c3.86-0.72,7.43-1.22,9.32-0.62
				C401.18,418.1,401.66,420.4,401.63,422.3z"/>
			<path class="st32" d="M344.58,239.29c0.99-1.48,2.13-2.74,3.19-3.53c4.47-3.35,13.58-3.22,13.85,4.03
				c0.27,7.22-10.77,16.94-17.55,11.57C340.47,248.5,342.01,243.13,344.58,239.29z"/>
			<path class="st97" d="M365.12,223.51c-46.71,49.48-72.88,115.03-82.74,143.58l-15.32-13.96
				c29.62-80.89,84.01-132.79,84.01-132.79C355.46,221.22,360.18,222.28,365.12,223.51z"/>
			
				<linearGradient id="SVGID_85_" gradientUnits="userSpaceOnUse" x1="379.81" y1="611.3" x2="488.76" y2="611.3" gradientTransform="matrix(1 0 0 -1 0 902)">
				<stop  offset="0" style="stop-color:#FFFFFF"/>
				<stop  offset="1" style="stop-color:#D4D9DD"/>
			</linearGradient>
			<path class="st98" d="M488.76,264.27C448.5,285,421,319.42,409.51,335.76l-29.7-12.74c13.38-30.11,42.14-61.7,57.6-77.38
				C466.13,255.54,488.76,264.27,488.76,264.27z"/>
			<path class="st5" d="M488.76,264.27c-154.58-18.81-220.75,87.31-221.69,88.84c29.62-80.88,84-132.77,84-132.77
				c9.66,1.92,20.86,4.79,32.63,8.15C431.6,242.21,488.76,264.27,488.76,264.27z"/>
		</g>
		<path class="st10" d="M986.87,585.48c0,0,107.61,20.6,166.22,30.99c16.01,2.84,30.23-10.53,28.42-26.68l-18.43-163.84
			L986.87,585.48z"/>
		<g>
			
				<linearGradient id="SVGID_86_" gradientUnits="userSpaceOnUse" x1="1156.8364" y1="467.3965" x2="977.0513" y2="322.0234" gradientTransform="matrix(1 0 0 -1 0 902)">
				<stop  offset="0" style="stop-color:#FFFFFF"/>
				<stop  offset="1" style="stop-color:#D4D9DD"/>
			</linearGradient>
			<path class="st99" d="M1163.08,421.8v156.95c0,12.07-11.69,20.84-25.77,19.64l-150.44-12.9c-10.28-0.88-18.45-9.69-18.45-19.68
				V435.78c0-7.26,5.93-13.66,13.34-14.3l162.49-13.94C1154.57,406.66,1163.08,413.03,1163.08,421.8z"/>
			
				<linearGradient id="SVGID_87_" gradientUnits="userSpaceOnUse" x1="968.4199" y1="469.8765" x2="1163.08" y2="469.8765" gradientTransform="matrix(1 0 0 -1 0 902)">
				<stop  offset="0" style="stop-color:#03344F"/>
				<stop  offset="1" style="stop-color:#0C4A66"/>
			</linearGradient>
			<path class="st100" d="M1163.08,421.8v25.35l-194.66,9.63v-21c0-7.26,5.93-13.65,13.34-14.29l162.49-13.94
				C1154.57,406.66,1163.08,413.03,1163.08,421.8z"/>
			<path class="st32" d="M1083.09,434.29c0,4.31-3.91,8.04-8.69,8.31c-4.74,0.27-8.55-2.94-8.55-7.19s3.81-7.96,8.55-8.3
				C1079.18,426.76,1083.09,429.98,1083.09,434.29z"/>
			
				<linearGradient id="SVGID_88_" gradientUnits="userSpaceOnUse" x1="1091.37" y1="468.8496" x2="1109.47" y2="468.8496" gradientTransform="matrix(1 0 0 -1 0 902)">
				<stop  offset="0" style="stop-color:#459DE5"/>
				<stop  offset="1" style="stop-color:#09AF8F"/>
			</linearGradient>
			<path class="st101" d="M1109.47,432.56c0,4.42-4.11,8.24-9.13,8.53c-4.98,0.29-8.97-3-8.97-7.35s4-8.16,8.97-8.52
				C1105.36,424.86,1109.47,428.14,1109.47,432.56z"/>
			
				<linearGradient id="SVGID_89_" gradientUnits="userSpaceOnUse" x1="1118.16" y1="470.6254" x2="1137.2" y2="470.6254" gradientTransform="matrix(1 0 0 -1 0 902)">
				<stop  offset="0" style="stop-color:#ED8191"/>
				<stop  offset="1" style="stop-color:#CC3A59"/>
			</linearGradient>
			<path class="st102" d="M1137.2,430.75c0,4.53-4.32,8.46-9.6,8.77c-5.23,0.3-9.44-3.07-9.44-7.52s4.2-8.38,9.44-8.76
				C1132.88,422.86,1137.2,426.22,1137.2,430.75z"/>
			
				<linearGradient id="SVGID_90_" gradientUnits="userSpaceOnUse" x1="1009.0599" y1="366.1342" x2="1011.5803" y2="337.9053" gradientTransform="matrix(1 0 0 -1 0 902)">
				<stop  offset="0" style="stop-color:#ED8191"/>
				<stop  offset="1" style="stop-color:#CC3A59"/>
			</linearGradient>
			<polygon class="st103" points="1021.44,534.82 999.21,534.11 999.21,565.25 1021.44,566.67 			"/>
			
				<linearGradient id="SVGID_91_" gradientUnits="userSpaceOnUse" x1="1039.6536" y1="392.8119" x2="1044.4583" y2="338.9989" gradientTransform="matrix(1 0 0 -1 0 902)">
				<stop  offset="0" style="stop-color:#459DE5"/>
				<stop  offset="1" style="stop-color:#92D3FF"/>
			</linearGradient>
			<polygon class="st104" points="1053.9,505.05 1030.22,505.01 1030.22,567.23 1053.9,568.74 			"/>
			
				<linearGradient id="SVGID_92_" gradientUnits="userSpaceOnUse" x1="1074.0754" y1="376.5196" x2="1077.7698" y2="335.1432" gradientTransform="matrix(1 0 0 -1 0 902)">
				<stop  offset="0" style="stop-color:#ED8191"/>
				<stop  offset="1" style="stop-color:#CC3A59"/>
			</linearGradient>
			<polygon class="st105" points="1088.57,523.05 1063.28,522.58 1063.28,569.34 1088.57,570.96 			"/>
			
				<linearGradient id="SVGID_93_" gradientUnits="userSpaceOnUse" x1="1108.1072" y1="428.9147" x2="1116.1489" y2="338.8477" gradientTransform="matrix(1 0 0 -1 0 902)">
				<stop  offset="0" style="stop-color:#459DE5"/>
				<stop  offset="1" style="stop-color:#09AF8F"/>
			</linearGradient>
			<polygon class="st106" points="1125.66,464.57 1098.59,465.53 1098.59,571.6 1125.66,573.32 			"/>
		</g>
		<path class="st10" d="M1161.67,585.74c-3.52,8.27-13.19,13.6-24.36,12.64l-3.86-0.33l-102.44-8.79l-44.13-3.78
			c-2.66-0.24-5.18-1-7.45-2.17c-6.51-3.37-11.01-10.11-11.01-17.52V435.77c0-1.79,0.35-3.51,1.01-5.12c0,0,5.15,10.12,15.5,25.31
			c10.11,14.83,25.19,34.5,45.29,54.27c7.24,7.13,15.14,14.26,23.68,21.2c3.04,2.46,6.16,4.91,9.37,7.31
			c7.92,5.94,16.35,11.66,25.29,17c3.27,1.96,6.61,3.88,10.02,5.72c7.79,4.23,15.92,8.15,24.42,11.69
			C1135.16,578.23,1148.05,582.51,1161.67,585.74z"/>
	</g>
</g>
</svg>
